<?xml version="1.0" encoding="us-ascii" standalone="no"?><svg xmlns="http://www.w3.org/2000/svg" xmlns:xlink="http://www.w3.org/1999/xlink" contentStyleType="text/css" height="684px" preserveAspectRatio="none" style="width:1634px;height:684px;background:#FFFFFF;" version="1.1" viewBox="0 0 1634 684" width="1634px" zoomAndPan="magnify"><defs/><g><!--class Main--><g id="elem_Main"><rect codeLine="6" fill="#F1F1F1" height="65.6094" id="Main" rx="2.5" ry="2.5" style="stroke:#181818;stroke-width:0.5;" width="181" x="153.5" y="51"/><ellipse cx="224.75" cy="67" fill="#ADD1B2" rx="11" ry="11" style="stroke:#181818;stroke-width:1.0;"/><path d="M227.5156,62.875 Q227.6719,62.6563 227.8594,62.5469 Q228.0469,62.4375 228.2656,62.4375 Q228.6406,62.4375 228.875,62.7031 Q229.1094,62.9531 229.1094,63.5625 L229.1094,65.0156 Q229.1094,65.625 228.875,65.8906 Q228.6406,66.1563 228.2656,66.1563 Q227.9219,66.1563 227.7188,65.9531 Q227.5156,65.7656 227.4063,65.25 Q227.3594,64.8906 227.1719,64.7031 Q226.8438,64.3281 226.2344,64.1094 Q225.625,63.8906 225,63.8906 Q224.2344,63.8906 223.5938,64.2188 Q222.9688,64.5469 222.4688,65.2969 Q221.9844,66.0469 221.9844,67.0781 L221.9844,68.1719 Q221.9844,69.4063 222.875,70.2344 Q223.7656,71.0469 225.3594,71.0469 Q226.2969,71.0469 226.9531,70.7969 Q227.3438,70.6406 227.7656,70.2031 Q228.0313,69.9375 228.1719,69.8594 Q228.3281,69.7813 228.5313,69.7813 Q228.8594,69.7813 229.1094,70.0469 Q229.375,70.2969 229.375,70.6406 Q229.375,70.9844 229.0313,71.3906 Q228.5313,71.9688 227.7344,72.2969 Q226.6563,72.75 225.3594,72.75 Q223.8438,72.75 222.6406,72.125 Q221.6563,71.625 220.9688,70.5625 Q220.2813,69.4844 220.2813,68.2031 L220.2813,67.0469 Q220.2813,65.7188 220.8906,64.5781 Q221.5156,63.4219 222.6094,62.8125 Q223.7031,62.1875 224.9375,62.1875 Q225.6719,62.1875 226.3125,62.3594 Q226.9688,62.5156 227.5156,62.875 Z " fill="#000000"/><text fill="#000000" font-family="sans-serif" font-size="14" lengthAdjust="spacing" textLength="30" x="245.25" y="72.7285">Main</text><line style="stroke:#181818;stroke-width:0.5;" x1="154.5" x2="333.5" y1="83" y2="83"/><line style="stroke:#181818;stroke-width:0.5;" x1="154.5" x2="333.5" y1="91" y2="91"/><ellipse cx="164.5" cy="105.3047" fill="#84BE84" rx="3" ry="3" style="stroke:#038048;stroke-width:1.0;"/><text fill="#000000" font-family="sans-serif" font-size="14" lengthAdjust="spacing" textLength="155" x="173.5" y="109.5332">main(args: String[]): void</text></g><!--class SistemaInscripcion--><g id="elem_SistemaInscripcion"><rect codeLine="10" fill="#F1F1F1" height="153.6563" id="SistemaInscripcion" rx="2.5" ry="2.5" style="stroke:#181818;stroke-width:0.5;" width="474" x="7" y="274"/><ellipse cx="181.25" cy="290" fill="#ADD1B2" rx="11" ry="11" style="stroke:#181818;stroke-width:1.0;"/><path d="M184.0156,285.875 Q184.1719,285.6563 184.3594,285.5469 Q184.5469,285.4375 184.7656,285.4375 Q185.1406,285.4375 185.375,285.7031 Q185.6094,285.9531 185.6094,286.5625 L185.6094,288.0156 Q185.6094,288.625 185.375,288.8906 Q185.1406,289.1563 184.7656,289.1563 Q184.4219,289.1563 184.2188,288.9531 Q184.0156,288.7656 183.9063,288.25 Q183.8594,287.8906 183.6719,287.7031 Q183.3438,287.3281 182.7344,287.1094 Q182.125,286.8906 181.5,286.8906 Q180.7344,286.8906 180.0938,287.2188 Q179.4688,287.5469 178.9688,288.2969 Q178.4844,289.0469 178.4844,290.0781 L178.4844,291.1719 Q178.4844,292.4063 179.375,293.2344 Q180.2656,294.0469 181.8594,294.0469 Q182.7969,294.0469 183.4531,293.7969 Q183.8438,293.6406 184.2656,293.2031 Q184.5313,292.9375 184.6719,292.8594 Q184.8281,292.7813 185.0313,292.7813 Q185.3594,292.7813 185.6094,293.0469 Q185.875,293.2969 185.875,293.6406 Q185.875,293.9844 185.5313,294.3906 Q185.0313,294.9688 184.2344,295.2969 Q183.1563,295.75 181.8594,295.75 Q180.3438,295.75 179.1406,295.125 Q178.1563,294.625 177.4688,293.5625 Q176.7813,292.4844 176.7813,291.2031 L176.7813,290.0469 Q176.7813,288.7188 177.3906,287.5781 Q178.0156,286.4219 179.1094,285.8125 Q180.2031,285.1875 181.4375,285.1875 Q182.1719,285.1875 182.8125,285.3594 Q183.4688,285.5156 184.0156,285.875 Z " fill="#000000"/><text fill="#000000" font-family="sans-serif" font-size="14" lengthAdjust="spacing" textLength="117" x="201.75" y="295.7285">SistemaInscripcion</text><line style="stroke:#181818;stroke-width:0.5;" x1="8" x2="480" y1="306" y2="306"/><rect fill="none" height="6" style="stroke:#C82930;stroke-width:1.0;" width="6" x="15" y="317.3047"/><text fill="#000000" font-family="sans-serif" font-size="14" lengthAdjust="spacing" textLength="181" x="27" y="324.5332">instancia: SistemaInscripcion</text><rect fill="none" height="6" style="stroke:#C82930;stroke-width:1.0;" width="6" x="15" y="334.9141"/><text fill="#000000" font-family="sans-serif" font-size="14" lengthAdjust="spacing" textLength="147" x="27" y="342.1426">materias: List&lt;Materia&gt;</text><line style="stroke:#181818;stroke-width:0.5;" x1="8" x2="480" y1="349.2188" y2="349.2188"/><ellipse cx="18" cy="363.5234" fill="#84BE84" rx="3" ry="3" style="stroke:#038048;stroke-width:1.0;"/><text fill="#000000" font-family="sans-serif" font-size="14" lengthAdjust="spacing" textLength="240" x="27" y="367.752">obtenerInstancia(): SistemaInscripcion</text><ellipse cx="18" cy="381.1328" fill="#84BE84" rx="3" ry="3" style="stroke:#038048;stroke-width:1.0;"/><text fill="#000000" font-family="sans-serif" font-size="14" lengthAdjust="spacing" textLength="243" x="27" y="385.3613">agregarMateria(materia: Materia): void</text><ellipse cx="18" cy="398.7422" fill="#84BE84" rx="3" ry="3" style="stroke:#038048;stroke-width:1.0;"/><text fill="#000000" font-family="sans-serif" font-size="14" lengthAdjust="spacing" textLength="146" x="27" y="402.9707">mostrarMaterias(): void</text><ellipse cx="18" cy="416.3516" fill="#84BE84" rx="3" ry="3" style="stroke:#038048;stroke-width:1.0;"/><text fill="#000000" font-family="sans-serif" font-size="14" lengthAdjust="spacing" textLength="448" x="27" y="420.5801">inscribirMateria(nombreEstudiante: String, nombreMateria: String): void</text></g><!--class Materia--><g id="elem_Materia"><rect codeLine="23" fill="#F1F1F1" height="136.0469" id="Materia" rx="2.5" ry="2.5" style="stroke:#181818;stroke-width:0.5;" width="350" x="142" y="541"/><ellipse cx="288.75" cy="557" fill="#B4A7E5" rx="11" ry="11" style="stroke:#181818;stroke-width:1.0;"/><path d="M289.7031,553.6406 L289.7031,560.2969 L291.4219,560.2969 Q292.0313,560.2969 292.2969,560.5313 Q292.5625,560.7656 292.5625,561.1563 Q292.5625,561.5313 292.2969,561.7656 Q292.0313,562 291.4219,562 L286.2813,562 Q285.6719,562 285.4063,561.7656 Q285.1406,561.5313 285.1406,561.1406 Q285.1406,560.7656 285.4063,560.5313 Q285.6719,560.2969 286.2813,560.2969 L288,560.2969 L288,553.6406 L286.2813,553.6406 Q285.6719,553.6406 285.4063,553.4063 Q285.1406,553.1719 285.1406,552.7813 Q285.1406,552.4063 285.4063,552.1719 Q285.6719,551.9375 286.2813,551.9375 L291.4219,551.9375 Q292.0313,551.9375 292.2969,552.1719 Q292.5625,552.4063 292.5625,552.7813 Q292.5625,553.1719 292.2969,553.4063 Q292.0313,553.6406 291.4219,553.6406 L289.7031,553.6406 Z " fill="#000000"/><text fill="#000000" font-family="sans-serif" font-size="14" font-style="italic" lengthAdjust="spacing" textLength="48" x="309.25" y="562.7285">Materia</text><line style="stroke:#181818;stroke-width:0.5;" x1="143" x2="491" y1="573" y2="573"/><line style="stroke:#181818;stroke-width:0.5;" x1="143" x2="491" y1="581" y2="581"/><ellipse cx="153" cy="595.3047" fill="#84BE84" rx="3" ry="3" style="stroke:#038048;stroke-width:1.0;"/><text fill="#000000" font-family="sans-serif" font-size="14" lengthAdjust="spacing" textLength="124" x="162" y="599.5332">getNombre(): String</text><ellipse cx="153" cy="612.9141" fill="#84BE84" rx="3" ry="3" style="stroke:#038048;stroke-width:1.0;"/><text fill="#000000" font-family="sans-serif" font-size="14" lengthAdjust="spacing" textLength="94" x="162" y="617.1426">getCupos(): int</text><ellipse cx="153" cy="630.5234" fill="#84BE84" rx="3" ry="3" style="stroke:#038048;stroke-width:1.0;"/><text fill="#000000" font-family="sans-serif" font-size="14" lengthAdjust="spacing" textLength="253" x="162" y="634.752">inscribir(nombreEstudiante: String): void</text><ellipse cx="153" cy="648.1328" fill="#84BE84" rx="3" ry="3" style="stroke:#038048;stroke-width:1.0;"/><text fill="#000000" font-family="sans-serif" font-size="14" lengthAdjust="spacing" textLength="324" x="162" y="652.3613">agregarObservador(observador: Observador): void</text><ellipse cx="153" cy="665.7422" fill="#84BE84" rx="3" ry="3" style="stroke:#038048;stroke-width:1.0;"/><text fill="#000000" font-family="sans-serif" font-size="14" lengthAdjust="spacing" textLength="282" x="162" y="669.9707">notificarObservadores(mensaje: String): void</text></g><!--class MateriaReal--><g id="elem_MateriaReal"><rect codeLine="31" fill="#F1F1F1" height="224.0938" id="MateriaReal" rx="2.5" ry="2.5" style="stroke:#181818;stroke-width:0.5;" width="350" x="901" y="239"/><ellipse cx="1033.75" cy="255" fill="#ADD1B2" rx="11" ry="11" style="stroke:#181818;stroke-width:1.0;"/><path d="M1036.5156,250.875 Q1036.6719,250.6563 1036.8594,250.5469 Q1037.0469,250.4375 1037.2656,250.4375 Q1037.6406,250.4375 1037.875,250.7031 Q1038.1094,250.9531 1038.1094,251.5625 L1038.1094,253.0156 Q1038.1094,253.625 1037.875,253.8906 Q1037.6406,254.1563 1037.2656,254.1563 Q1036.9219,254.1563 1036.7188,253.9531 Q1036.5156,253.7656 1036.4063,253.25 Q1036.3594,252.8906 1036.1719,252.7031 Q1035.8438,252.3281 1035.2344,252.1094 Q1034.625,251.8906 1034,251.8906 Q1033.2344,251.8906 1032.5938,252.2188 Q1031.9688,252.5469 1031.4688,253.2969 Q1030.9844,254.0469 1030.9844,255.0781 L1030.9844,256.1719 Q1030.9844,257.4063 1031.875,258.2344 Q1032.7656,259.0469 1034.3594,259.0469 Q1035.2969,259.0469 1035.9531,258.7969 Q1036.3438,258.6406 1036.7656,258.2031 Q1037.0313,257.9375 1037.1719,257.8594 Q1037.3281,257.7813 1037.5313,257.7813 Q1037.8594,257.7813 1038.1094,258.0469 Q1038.375,258.2969 1038.375,258.6406 Q1038.375,258.9844 1038.0313,259.3906 Q1037.5313,259.9688 1036.7344,260.2969 Q1035.6563,260.75 1034.3594,260.75 Q1032.8438,260.75 1031.6406,260.125 Q1030.6563,259.625 1029.9688,258.5625 Q1029.2813,257.4844 1029.2813,256.2031 L1029.2813,255.0469 Q1029.2813,253.7188 1029.8906,252.5781 Q1030.5156,251.4219 1031.6094,250.8125 Q1032.7031,250.1875 1033.9375,250.1875 Q1034.6719,250.1875 1035.3125,250.3594 Q1035.9688,250.5156 1036.5156,250.875 Z " fill="#000000"/><text fill="#000000" font-family="sans-serif" font-size="14" lengthAdjust="spacing" textLength="76" x="1054.25" y="260.7285">MateriaReal</text><line style="stroke:#181818;stroke-width:0.5;" x1="902" x2="1250" y1="271" y2="271"/><rect fill="none" height="6" style="stroke:#C82930;stroke-width:1.0;" width="6" x="909" y="282.3047"/><text fill="#000000" font-family="sans-serif" font-size="14" lengthAdjust="spacing" textLength="93" x="921" y="289.5332">nombre: String</text><rect fill="none" height="6" style="stroke:#C82930;stroke-width:1.0;" width="6" x="909" y="299.9141"/><text fill="#000000" font-family="sans-serif" font-size="14" lengthAdjust="spacing" textLength="61" x="921" y="307.1426">cupos: int</text><rect fill="none" height="6" style="stroke:#C82930;stroke-width:1.0;" width="6" x="909" y="317.5234"/><text fill="#000000" font-family="sans-serif" font-size="14" lengthAdjust="spacing" textLength="134" x="921" y="324.752">inscritos: Set&lt;String&gt;</text><rect fill="none" height="6" style="stroke:#C82930;stroke-width:1.0;" width="6" x="909" y="335.1328"/><text fill="#000000" font-family="sans-serif" font-size="14" lengthAdjust="spacing" textLength="208" x="921" y="342.3613">observadores: List&lt;Observador&gt;</text><line style="stroke:#181818;stroke-width:0.5;" x1="902" x2="1250" y1="349.4375" y2="349.4375"/><ellipse cx="912" cy="363.7422" fill="#84BE84" rx="3" ry="3" style="stroke:#038048;stroke-width:1.0;"/><text fill="#000000" font-family="sans-serif" font-size="14" lengthAdjust="spacing" textLength="124" x="921" y="367.9707">getNombre(): String</text><ellipse cx="912" cy="381.3516" fill="#84BE84" rx="3" ry="3" style="stroke:#038048;stroke-width:1.0;"/><text fill="#000000" font-family="sans-serif" font-size="14" lengthAdjust="spacing" textLength="94" x="921" y="385.5801">getCupos(): int</text><ellipse cx="912" cy="398.9609" fill="#84BE84" rx="3" ry="3" style="stroke:#038048;stroke-width:1.0;"/><text fill="#000000" font-family="sans-serif" font-size="14" lengthAdjust="spacing" textLength="164" x="921" y="403.1895">getInscritos(): Set&lt;String&gt;</text><ellipse cx="912" cy="416.5703" fill="#84BE84" rx="3" ry="3" style="stroke:#038048;stroke-width:1.0;"/><text fill="#000000" font-family="sans-serif" font-size="14" lengthAdjust="spacing" textLength="253" x="921" y="420.7988">inscribir(nombreEstudiante: String): void</text><ellipse cx="912" cy="434.1797" fill="#84BE84" rx="3" ry="3" style="stroke:#038048;stroke-width:1.0;"/><text fill="#000000" font-family="sans-serif" font-size="14" lengthAdjust="spacing" textLength="324" x="921" y="438.4082">agregarObservador(observador: Observador): void</text><ellipse cx="912" cy="451.7891" fill="#84BE84" rx="3" ry="3" style="stroke:#038048;stroke-width:1.0;"/><text fill="#000000" font-family="sans-serif" font-size="14" lengthAdjust="spacing" textLength="282" x="921" y="456.0176">notificarObservadores(mensaje: String): void</text></g><!--class MateriaProxy--><g id="elem_MateriaProxy"><rect codeLine="44" fill="#F1F1F1" height="153.6563" id="MateriaProxy" rx="2.5" ry="2.5" style="stroke:#181818;stroke-width:0.5;" width="350" x="1069" y="7"/><ellipse cx="1198.75" cy="23" fill="#ADD1B2" rx="11" ry="11" style="stroke:#181818;stroke-width:1.0;"/><path d="M1201.5156,18.875 Q1201.6719,18.6563 1201.8594,18.5469 Q1202.0469,18.4375 1202.2656,18.4375 Q1202.6406,18.4375 1202.875,18.7031 Q1203.1094,18.9531 1203.1094,19.5625 L1203.1094,21.0156 Q1203.1094,21.625 1202.875,21.8906 Q1202.6406,22.1563 1202.2656,22.1563 Q1201.9219,22.1563 1201.7188,21.9531 Q1201.5156,21.7656 1201.4063,21.25 Q1201.3594,20.8906 1201.1719,20.7031 Q1200.8438,20.3281 1200.2344,20.1094 Q1199.625,19.8906 1199,19.8906 Q1198.2344,19.8906 1197.5938,20.2188 Q1196.9688,20.5469 1196.4688,21.2969 Q1195.9844,22.0469 1195.9844,23.0781 L1195.9844,24.1719 Q1195.9844,25.4063 1196.875,26.2344 Q1197.7656,27.0469 1199.3594,27.0469 Q1200.2969,27.0469 1200.9531,26.7969 Q1201.3438,26.6406 1201.7656,26.2031 Q1202.0313,25.9375 1202.1719,25.8594 Q1202.3281,25.7813 1202.5313,25.7813 Q1202.8594,25.7813 1203.1094,26.0469 Q1203.375,26.2969 1203.375,26.6406 Q1203.375,26.9844 1203.0313,27.3906 Q1202.5313,27.9688 1201.7344,28.2969 Q1200.6563,28.75 1199.3594,28.75 Q1197.8438,28.75 1196.6406,28.125 Q1195.6563,27.625 1194.9688,26.5625 Q1194.2813,25.4844 1194.2813,24.2031 L1194.2813,23.0469 Q1194.2813,21.7188 1194.8906,20.5781 Q1195.5156,19.4219 1196.6094,18.8125 Q1197.7031,18.1875 1198.9375,18.1875 Q1199.6719,18.1875 1200.3125,18.3594 Q1200.9688,18.5156 1201.5156,18.875 Z " fill="#000000"/><text fill="#000000" font-family="sans-serif" font-size="14" lengthAdjust="spacing" textLength="82" x="1219.25" y="28.7285">MateriaProxy</text><line style="stroke:#181818;stroke-width:0.5;" x1="1070" x2="1418" y1="39" y2="39"/><rect fill="none" height="6" style="stroke:#C82930;stroke-width:1.0;" width="6" x="1077" y="50.3047"/><text fill="#000000" font-family="sans-serif" font-size="14" lengthAdjust="spacing" textLength="160" x="1089" y="57.5332">materiaReal: MateriaReal</text><line style="stroke:#181818;stroke-width:0.5;" x1="1070" x2="1418" y1="64.6094" y2="64.6094"/><ellipse cx="1080" cy="78.9141" fill="#84BE84" rx="3" ry="3" style="stroke:#038048;stroke-width:1.0;"/><text fill="#000000" font-family="sans-serif" font-size="14" lengthAdjust="spacing" textLength="124" x="1089" y="83.1426">getNombre(): String</text><ellipse cx="1080" cy="96.5234" fill="#84BE84" rx="3" ry="3" style="stroke:#038048;stroke-width:1.0;"/><text fill="#000000" font-family="sans-serif" font-size="14" lengthAdjust="spacing" textLength="94" x="1089" y="100.752">getCupos(): int</text><ellipse cx="1080" cy="114.1328" fill="#84BE84" rx="3" ry="3" style="stroke:#038048;stroke-width:1.0;"/><text fill="#000000" font-family="sans-serif" font-size="14" lengthAdjust="spacing" textLength="253" x="1089" y="118.3613">inscribir(nombreEstudiante: String): void</text><ellipse cx="1080" cy="131.7422" fill="#84BE84" rx="3" ry="3" style="stroke:#038048;stroke-width:1.0;"/><text fill="#000000" font-family="sans-serif" font-size="14" lengthAdjust="spacing" textLength="324" x="1089" y="135.9707">agregarObservador(observador: Observador): void</text><ellipse cx="1080" cy="149.3516" fill="#84BE84" rx="3" ry="3" style="stroke:#038048;stroke-width:1.0;"/><text fill="#000000" font-family="sans-serif" font-size="14" lengthAdjust="spacing" textLength="282" x="1089" y="153.5801">notificarObservadores(mensaje: String): void</text></g><!--class MateriaConVerificacion--><g id="elem_MateriaConVerificacion"><rect codeLine="57" fill="#F1F1F1" height="153.6563" id="MateriaConVerificacion" rx="2.5" ry="2.5" style="stroke:#181818;stroke-width:0.5;" width="350" x="516" y="274"/><ellipse cx="613.75" cy="290" fill="#ADD1B2" rx="11" ry="11" style="stroke:#181818;stroke-width:1.0;"/><path d="M616.5156,285.875 Q616.6719,285.6563 616.8594,285.5469 Q617.0469,285.4375 617.2656,285.4375 Q617.6406,285.4375 617.875,285.7031 Q618.1094,285.9531 618.1094,286.5625 L618.1094,288.0156 Q618.1094,288.625 617.875,288.8906 Q617.6406,289.1563 617.2656,289.1563 Q616.9219,289.1563 616.7188,288.9531 Q616.5156,288.7656 616.4063,288.25 Q616.3594,287.8906 616.1719,287.7031 Q615.8438,287.3281 615.2344,287.1094 Q614.625,286.8906 614,286.8906 Q613.2344,286.8906 612.5938,287.2188 Q611.9688,287.5469 611.4688,288.2969 Q610.9844,289.0469 610.9844,290.0781 L610.9844,291.1719 Q610.9844,292.4063 611.875,293.2344 Q612.7656,294.0469 614.3594,294.0469 Q615.2969,294.0469 615.9531,293.7969 Q616.3438,293.6406 616.7656,293.2031 Q617.0313,292.9375 617.1719,292.8594 Q617.3281,292.7813 617.5313,292.7813 Q617.8594,292.7813 618.1094,293.0469 Q618.375,293.2969 618.375,293.6406 Q618.375,293.9844 618.0313,294.3906 Q617.5313,294.9688 616.7344,295.2969 Q615.6563,295.75 614.3594,295.75 Q612.8438,295.75 611.6406,295.125 Q610.6563,294.625 609.9688,293.5625 Q609.2813,292.4844 609.2813,291.2031 L609.2813,290.0469 Q609.2813,288.7188 609.8906,287.5781 Q610.5156,286.4219 611.6094,285.8125 Q612.7031,285.1875 613.9375,285.1875 Q614.6719,285.1875 615.3125,285.3594 Q615.9688,285.5156 616.5156,285.875 Z " fill="#000000"/><text fill="#000000" font-family="sans-serif" font-size="14" lengthAdjust="spacing" textLength="146" x="634.25" y="295.7285">MateriaConVerificacion</text><line style="stroke:#181818;stroke-width:0.5;" x1="517" x2="865" y1="306" y2="306"/><rect fill="none" height="6" style="stroke:#C82930;stroke-width:1.0;" width="6" x="524" y="317.3047"/><text fill="#000000" font-family="sans-serif" font-size="14" lengthAdjust="spacing" textLength="164" x="536" y="324.5332">materiaDecorada: Materia</text><line style="stroke:#181818;stroke-width:0.5;" x1="517" x2="865" y1="331.6094" y2="331.6094"/><ellipse cx="527" cy="345.9141" fill="#84BE84" rx="3" ry="3" style="stroke:#038048;stroke-width:1.0;"/><text fill="#000000" font-family="sans-serif" font-size="14" lengthAdjust="spacing" textLength="124" x="536" y="350.1426">getNombre(): String</text><ellipse cx="527" cy="363.5234" fill="#84BE84" rx="3" ry="3" style="stroke:#038048;stroke-width:1.0;"/><text fill="#000000" font-family="sans-serif" font-size="14" lengthAdjust="spacing" textLength="94" x="536" y="367.752">getCupos(): int</text><ellipse cx="527" cy="381.1328" fill="#84BE84" rx="3" ry="3" style="stroke:#038048;stroke-width:1.0;"/><text fill="#000000" font-family="sans-serif" font-size="14" lengthAdjust="spacing" textLength="253" x="536" y="385.3613">inscribir(nombreEstudiante: String): void</text><ellipse cx="527" cy="398.7422" fill="#84BE84" rx="3" ry="3" style="stroke:#038048;stroke-width:1.0;"/><text fill="#000000" font-family="sans-serif" font-size="14" lengthAdjust="spacing" textLength="324" x="536" y="402.9707">agregarObservador(observador: Observador): void</text><ellipse cx="527" cy="416.3516" fill="#84BE84" rx="3" ry="3" style="stroke:#038048;stroke-width:1.0;"/><text fill="#000000" font-family="sans-serif" font-size="14" lengthAdjust="spacing" textLength="282" x="536" y="420.5801">notificarObservadores(mensaje: String): void</text></g><!--class MateriaDecorador--><g id="elem_MateriaDecorador"><rect codeLine="66" fill="#F1F1F1" height="118.4375" id="MateriaDecorador" rx="2.5" ry="2.5" style="stroke:#181818;stroke-width:0.5;" width="279" x="551.5" y="550"/><ellipse cx="629.75" cy="566" fill="#ADD1B2" rx="11" ry="11" style="stroke:#181818;stroke-width:1.0;"/><path d="M632.5156,561.875 Q632.6719,561.6563 632.8594,561.5469 Q633.0469,561.4375 633.2656,561.4375 Q633.6406,561.4375 633.875,561.7031 Q634.1094,561.9531 634.1094,562.5625 L634.1094,564.0156 Q634.1094,564.625 633.875,564.8906 Q633.6406,565.1563 633.2656,565.1563 Q632.9219,565.1563 632.7188,564.9531 Q632.5156,564.7656 632.4063,564.25 Q632.3594,563.8906 632.1719,563.7031 Q631.8438,563.3281 631.2344,563.1094 Q630.625,562.8906 630,562.8906 Q629.2344,562.8906 628.5938,563.2188 Q627.9688,563.5469 627.4688,564.2969 Q626.9844,565.0469 626.9844,566.0781 L626.9844,567.1719 Q626.9844,568.4063 627.875,569.2344 Q628.7656,570.0469 630.3594,570.0469 Q631.2969,570.0469 631.9531,569.7969 Q632.3438,569.6406 632.7656,569.2031 Q633.0313,568.9375 633.1719,568.8594 Q633.3281,568.7813 633.5313,568.7813 Q633.8594,568.7813 634.1094,569.0469 Q634.375,569.2969 634.375,569.6406 Q634.375,569.9844 634.0313,570.3906 Q633.5313,570.9688 632.7344,571.2969 Q631.6563,571.75 630.3594,571.75 Q628.8438,571.75 627.6406,571.125 Q626.6563,570.625 625.9688,569.5625 Q625.2813,568.4844 625.2813,567.2031 L625.2813,566.0469 Q625.2813,564.7188 625.8906,563.5781 Q626.5156,562.4219 627.6094,561.8125 Q628.7031,561.1875 629.9375,561.1875 Q630.6719,561.1875 631.3125,561.3594 Q631.9688,561.5156 632.5156,561.875 Z " fill="#000000"/><text fill="#000000" font-family="sans-serif" font-size="14" lengthAdjust="spacing" textLength="114" x="650.25" y="571.7285">MateriaDecorador</text><line style="stroke:#181818;stroke-width:0.5;" x1="552.5" x2="829.5" y1="582" y2="582"/><rect fill="none" height="6" style="stroke:#C82930;stroke-width:1.0;" width="6" x="559.5" y="593.3047"/><text fill="#000000" font-family="sans-serif" font-size="14" lengthAdjust="spacing" textLength="102" x="571.5" y="600.5332">materia: Materia</text><line style="stroke:#181818;stroke-width:0.5;" x1="552.5" x2="829.5" y1="607.6094" y2="607.6094"/><ellipse cx="562.5" cy="621.9141" fill="#84BE84" rx="3" ry="3" style="stroke:#038048;stroke-width:1.0;"/><text fill="#000000" font-family="sans-serif" font-size="14" lengthAdjust="spacing" textLength="124" x="571.5" y="626.1426">getNombre(): String</text><ellipse cx="562.5" cy="639.5234" fill="#84BE84" rx="3" ry="3" style="stroke:#038048;stroke-width:1.0;"/><text fill="#000000" font-family="sans-serif" font-size="14" lengthAdjust="spacing" textLength="94" x="571.5" y="643.752">getCupos(): int</text><ellipse cx="562.5" cy="657.1328" fill="#84BE84" rx="3" ry="3" style="stroke:#038048;stroke-width:1.0;"/><text fill="#000000" font-family="sans-serif" font-size="14" lengthAdjust="spacing" textLength="253" x="571.5" y="661.3613">inscribir(nombreEstudiante: String): void</text></g><!--class Observador--><g id="elem_Observador"><rect codeLine="77" fill="#F1F1F1" height="65.6094" id="Observador" rx="2.5" ry="2.5" style="stroke:#181818;stroke-width:0.5;" width="228" x="1129" y="576"/><ellipse cx="1201.75" cy="592" fill="#B4A7E5" rx="11" ry="11" style="stroke:#181818;stroke-width:1.0;"/><path d="M1202.7031,588.6406 L1202.7031,595.2969 L1204.4219,595.2969 Q1205.0313,595.2969 1205.2969,595.5313 Q1205.5625,595.7656 1205.5625,596.1563 Q1205.5625,596.5313 1205.2969,596.7656 Q1205.0313,597 1204.4219,597 L1199.2813,597 Q1198.6719,597 1198.4063,596.7656 Q1198.1406,596.5313 1198.1406,596.1406 Q1198.1406,595.7656 1198.4063,595.5313 Q1198.6719,595.2969 1199.2813,595.2969 L1201,595.2969 L1201,588.6406 L1199.2813,588.6406 Q1198.6719,588.6406 1198.4063,588.4063 Q1198.1406,588.1719 1198.1406,587.7813 Q1198.1406,587.4063 1198.4063,587.1719 Q1198.6719,586.9375 1199.2813,586.9375 L1204.4219,586.9375 Q1205.0313,586.9375 1205.2969,587.1719 Q1205.5625,587.4063 1205.5625,587.7813 Q1205.5625,588.1719 1205.2969,588.4063 Q1205.0313,588.6406 1204.4219,588.6406 L1202.7031,588.6406 Z " fill="#000000"/><text fill="#000000" font-family="sans-serif" font-size="14" font-style="italic" lengthAdjust="spacing" textLength="74" x="1222.25" y="597.7285">Observador</text><line style="stroke:#181818;stroke-width:0.5;" x1="1130" x2="1356" y1="608" y2="608"/><line style="stroke:#181818;stroke-width:0.5;" x1="1130" x2="1356" y1="616" y2="616"/><ellipse cx="1140" cy="630.3047" fill="#84BE84" rx="3" ry="3" style="stroke:#038048;stroke-width:1.0;"/><text fill="#000000" font-family="sans-serif" font-size="14" lengthAdjust="spacing" textLength="202" x="1149" y="634.5332">actualizar(mensaje: String): void</text></g><!--class EstudianteObservador--><g id="elem_EstudianteObservador"><rect codeLine="81" fill="#F1F1F1" height="83.2188" id="EstudianteObservador" rx="2.5" ry="2.5" style="stroke:#181818;stroke-width:0.5;" width="228" x="1399" y="309.5"/><ellipse cx="1438.3" cy="325.5" fill="#ADD1B2" rx="11" ry="11" style="stroke:#181818;stroke-width:1.0;"/><path d="M1441.0656,321.375 Q1441.2219,321.1563 1441.4094,321.0469 Q1441.5969,320.9375 1441.8156,320.9375 Q1442.1906,320.9375 1442.425,321.2031 Q1442.6594,321.4531 1442.6594,322.0625 L1442.6594,323.5156 Q1442.6594,324.125 1442.425,324.3906 Q1442.1906,324.6563 1441.8156,324.6563 Q1441.4719,324.6563 1441.2688,324.4531 Q1441.0656,324.2656 1440.9563,323.75 Q1440.9094,323.3906 1440.7219,323.2031 Q1440.3938,322.8281 1439.7844,322.6094 Q1439.175,322.3906 1438.55,322.3906 Q1437.7844,322.3906 1437.1438,322.7188 Q1436.5188,323.0469 1436.0188,323.7969 Q1435.5344,324.5469 1435.5344,325.5781 L1435.5344,326.6719 Q1435.5344,327.9063 1436.425,328.7344 Q1437.3156,329.5469 1438.9094,329.5469 Q1439.8469,329.5469 1440.5031,329.2969 Q1440.8938,329.1406 1441.3156,328.7031 Q1441.5813,328.4375 1441.7219,328.3594 Q1441.8781,328.2813 1442.0813,328.2813 Q1442.4094,328.2813 1442.6594,328.5469 Q1442.925,328.7969 1442.925,329.1406 Q1442.925,329.4844 1442.5813,329.8906 Q1442.0813,330.4688 1441.2844,330.7969 Q1440.2063,331.25 1438.9094,331.25 Q1437.3938,331.25 1436.1906,330.625 Q1435.2063,330.125 1434.5188,329.0625 Q1433.8313,327.9844 1433.8313,326.7031 L1433.8313,325.5469 Q1433.8313,324.2188 1434.4406,323.0781 Q1435.0656,321.9219 1436.1594,321.3125 Q1437.2531,320.6875 1438.4875,320.6875 Q1439.2219,320.6875 1439.8625,320.8594 Q1440.5188,321.0156 1441.0656,321.375 Z " fill="#000000"/><text fill="#000000" font-family="sans-serif" font-size="14" lengthAdjust="spacing" textLength="142" x="1457.7" y="331.2285">EstudianteObservador</text><line style="stroke:#181818;stroke-width:0.5;" x1="1400" x2="1626" y1="341.5" y2="341.5"/><rect fill="none" height="6" style="stroke:#C82930;stroke-width:1.0;" width="6" x="1407" y="352.8047"/><text fill="#000000" font-family="sans-serif" font-size="14" lengthAdjust="spacing" textLength="93" x="1419" y="360.0332">nombre: String</text><line style="stroke:#181818;stroke-width:0.5;" x1="1400" x2="1626" y1="367.1094" y2="367.1094"/><ellipse cx="1410" cy="381.4141" fill="#84BE84" rx="3" ry="3" style="stroke:#038048;stroke-width:1.0;"/><text fill="#000000" font-family="sans-serif" font-size="14" lengthAdjust="spacing" textLength="202" x="1419" y="385.6426">actualizar(mensaje: String): void</text></g><!--link Main to SistemaInscripcion--><g id="link_Main_SistemaInscripcion"><path codeLine="90" d="M244,117.23 C244,155.85 244,215.85 244,267.72 " fill="none" id="Main-to-SistemaInscripcion" style="stroke:#181818;stroke-width:1.0;"/><polygon fill="#181818" points="244,273.72,248,264.72,244,268.72,240,264.72,244,273.72" style="stroke:#181818;stroke-width:1.0;"/><text fill="#000000" font-family="sans-serif" font-size="13" lengthAdjust="spacing" textLength="21" x="245" y="205.4951">usa</text></g><!--link SistemaInscripcion to Materia--><g id="link_SistemaInscripcion_Materia"><path codeLine="91" d="M265.7,428.12 C275.92,463.93 286.3441,500.5002 296.2141,535.1002 " fill="none" id="SistemaInscripcion-to-Materia" style="stroke:#181818;stroke-width:1.0;"/><polygon fill="#181818" points="297.86,540.87,299.2377,531.118,296.4884,536.0618,291.5446,533.3125,297.86,540.87" style="stroke:#181818;stroke-width:1.0;"/><text fill="#000000" font-family="sans-serif" font-size="13" lengthAdjust="spacing" textLength="49" x="291" y="507.4951">contiene</text></g><!--link MateriaProxy to MateriaReal--><g id="link_MateriaProxy_MateriaReal"><path codeLine="92" d="M1195.63,161.29 C1180.32,185.45 1166.2726,207.6025 1149.7326,233.6925 " fill="none" id="MateriaProxy-to-MateriaReal" style="stroke:#181818;stroke-width:1.0;"/><polygon fill="#181818" points="1146.52,238.76,1154.7172,233.3005,1149.1971,234.5371,1147.9605,229.0171,1146.52,238.76" style="stroke:#181818;stroke-width:1.0;"/><text fill="#000000" font-family="sans-serif" font-size="13" lengthAdjust="spacing" textLength="38" x="1177" y="205.4951">delega</text></g><!--link MateriaConVerificacion to Materia--><g id="link_MateriaConVerificacion_Materia"><path codeLine="93" d="M579.8,428.12 C527.48,463.93 470.5712,502.881 420.0212,537.481 " fill="none" id="MateriaConVerificacion-to-Materia" style="stroke:#181818;stroke-width:1.0;"/><polygon fill="#181818" points="415.07,540.87,424.7562,539.0874,419.196,538.0458,420.2375,532.4857,415.07,540.87" style="stroke:#181818;stroke-width:1.0;"/><text fill="#000000" font-family="sans-serif" font-size="13" lengthAdjust="spacing" textLength="39" x="483" y="507.4951">decora</text></g><!--link MateriaConVerificacion to MateriaDecorador--><g id="link_MateriaConVerificacion_MateriaDecorador"><path codeLine="94" d="M691,428.12 C691,467.03 691,507.64 691,543.66 " fill="none" id="MateriaConVerificacion-to-MateriaDecorador" style="stroke:#181818;stroke-width:1.0;"/><polygon fill="#181818" points="691,549.66,695,540.66,691,544.66,687,540.66,691,549.66" style="stroke:#181818;stroke-width:1.0;"/><text fill="#000000" font-family="sans-serif" font-size="13" lengthAdjust="spacing" textLength="39" x="692" y="507.4951">hereda</text></g><!--link MateriaReal to Observador--><g id="link_MateriaReal_Observador"><path codeLine="95" d="M1148.52,463.17 C1175.19,504.05 1200.1008,542.2454 1218.6808,570.7154 " fill="none" id="MateriaReal-to-Observador" style="stroke:#181818;stroke-width:1.0;"/><polygon fill="#181818" points="1221.96,575.74,1220.391,566.0169,1219.2274,571.5528,1213.6915,570.3891,1221.96,575.74" style="stroke:#181818;stroke-width:1.0;"/><text fill="#000000" font-family="sans-serif" font-size="13" lengthAdjust="spacing" textLength="41" x="1181" y="507.4951">notifica</text></g><!--link MateriaProxy to Observador--><g id="link_MateriaProxy_Observador"><path codeLine="96" d="M1258.25,161.1 C1262.24,185.85 1266.03,213.51 1268,239 C1275.69,338.26 1276.49,363.81 1268,463 C1264.65,502.2 1257.5111,540.8377 1251.3811,570.0777 " fill="none" id="MateriaProxy-to-Observador" style="stroke:#181818;stroke-width:1.0;"/><polygon fill="#181818" points="1250.15,575.95,1255.9115,567.9622,1251.1759,571.0564,1248.0818,566.3208,1250.15,575.95" style="stroke:#181818;stroke-width:1.0;"/><text fill="#000000" font-family="sans-serif" font-size="13" lengthAdjust="spacing" textLength="41" x="1276" y="356.4951">notifica</text></g><!--link MateriaConVerificacion to Observador--><g id="link_MateriaConVerificacion_Observador"><path codeLine="97" d="M816.66,428.02 C838.49,440.25 861.2,452.37 883,463 C972.94,506.84 1074.0441,546.5245 1147.8241,573.8745 " fill="none" id="MateriaConVerificacion-to-Observador" style="stroke:#181818;stroke-width:1.0;"/><polygon fill="#181818" points="1153.45,575.96,1146.4015,569.0812,1148.7618,574.2221,1143.6208,576.5823,1153.45,575.96" style="stroke:#181818;stroke-width:1.0;"/><text fill="#000000" font-family="sans-serif" font-size="13" lengthAdjust="spacing" textLength="41" x="981" y="507.4951">notifica</text></g><!--link EstudianteObservador to Observador--><g id="link_EstudianteObservador_Observador"><path codeLine="98" d="M1470.85,392.67 C1437.38,424.89 1389.34,470.98 1347,511 C1324.03,532.71 1302.426,552.8765 1282.166,571.6965 " fill="none" id="EstudianteObservador-to-Observador" style="stroke:#181818;stroke-width:1.0;"/><polygon fill="#181818" points="1277.77,575.78,1287.0863,572.5854,1281.4333,572.3771,1281.6416,566.724,1277.77,575.78" style="stroke:#181818;stroke-width:1.0;"/><text fill="#000000" font-family="sans-serif" font-size="13" lengthAdjust="spacing" textLength="67" x="1367" y="507.4951">implementa</text></g><!--SRC=[tLOzRzim4DtrAswpWjH_W4Yzk1qCr4aH0rsA3cVgehAGI86aWoP5_tifYXGbMxQC3WKQBRR8kyTxxpwe1Rm_-sGBM5Teo42ZXUIYmOgCMxpWaN7dO62BGiAl3Dnp2xLxoL6NXi7EEg3owxSR1izA5DdlwB0JnbAD6scu5WqNAhelGKXZqPsERC8gsDHeIGjq9tno9dVRxdKL0b1xIvBq9WBbDsUXRW5BJINg0947P0PX8KOUg2bZTMziyl6kyE1xqOD9LUyrVJJsK0YKbg8Wxw3RsSR3kkM1IelBQTeuCFs4hp5AU07UPOuhoJLPdCkRw10uzH0nVINPUn-Tbyq7bdRMXqPvsix_cFLPkcELWk0FUqFw6GkbSzN_PP2MnrvIMV4a-D2FJ5wJDFY39WICTUcvFH9MVNrrKOweBO6tl1AhPM1bsyKTsRlEU1KsrI26K88fhDLVwkXMD_5Gxt9qx7-Xz6UjVhxqKjT9VZRCnPkgj9bM_K1SwHO4YhxNhfoftdQjv1VtsqOq6fD1sm2V1jRRxUAav946_uxxVBeJiJIJDLK-TovDru_b0L2SpCZj0IlnYdfMiaJX16To0bu9FaF-CH1rd4bQJK606Sx-us6vN4rz530u6CmcDbhxU7EnzjQpmjtvsMWC3Mpy3S1S2rQkQhCphJN6B7ovNM6RwfB1Tz9Kz4x-rDPoa0JMDy5fi1VDfYAOTfXC_ecvg9kANAejPdy0]--></g></svg>