<?xml version="1.0" encoding="us-ascii" standalone="no"?><svg xmlns="http://www.w3.org/2000/svg" xmlns:xlink="http://www.w3.org/1999/xlink" contentStyleType="text/css" height="1320px" preserveAspectRatio="none" style="width:1182px;height:1320px;background:#FFFFFF;" version="1.1" viewBox="0 0 1182 1320" width="1182px" zoomAndPan="magnify"><defs/><g><!--class InterfazApp--><g id="elem_InterfazApp"><rect codeLine="2" fill="#F1F1F1" height="65.6094" id="InterfazApp" rx="2.5" ry="2.5" style="stroke:#181818;stroke-width:0.5;" width="147" x="627.5" y="7"/><ellipse cx="662.3" cy="23" fill="#ADD1B2" rx="11" ry="11" style="stroke:#181818;stroke-width:1.0;"/><path d="M665.0656,18.875 Q665.2219,18.6563 665.4094,18.5469 Q665.5969,18.4375 665.8156,18.4375 Q666.1906,18.4375 666.425,18.7031 Q666.6594,18.9531 666.6594,19.5625 L666.6594,21.0156 Q666.6594,21.625 666.425,21.8906 Q666.1906,22.1563 665.8156,22.1563 Q665.4719,22.1563 665.2688,21.9531 Q665.0656,21.7656 664.9563,21.25 Q664.9094,20.8906 664.7219,20.7031 Q664.3938,20.3281 663.7844,20.1094 Q663.175,19.8906 662.55,19.8906 Q661.7844,19.8906 661.1438,20.2188 Q660.5188,20.5469 660.0188,21.2969 Q659.5344,22.0469 659.5344,23.0781 L659.5344,24.1719 Q659.5344,25.4063 660.425,26.2344 Q661.3156,27.0469 662.9094,27.0469 Q663.8469,27.0469 664.5031,26.7969 Q664.8938,26.6406 665.3156,26.2031 Q665.5813,25.9375 665.7219,25.8594 Q665.8781,25.7813 666.0813,25.7813 Q666.4094,25.7813 666.6594,26.0469 Q666.925,26.2969 666.925,26.6406 Q666.925,26.9844 666.5813,27.3906 Q666.0813,27.9688 665.2844,28.2969 Q664.2063,28.75 662.9094,28.75 Q661.3938,28.75 660.1906,28.125 Q659.2063,27.625 658.5188,26.5625 Q657.8313,25.4844 657.8313,24.2031 L657.8313,23.0469 Q657.8313,21.7188 658.4406,20.5781 Q659.0656,19.4219 660.1594,18.8125 Q661.2531,18.1875 662.4875,18.1875 Q663.2219,18.1875 663.8625,18.3594 Q664.5188,18.5156 665.0656,18.875 Z " fill="#000000"/><text fill="#000000" font-family="sans-serif" font-size="14" lengthAdjust="spacing" textLength="71" x="680.7" y="28.7285">InterfazApp</text><line style="stroke:#181818;stroke-width:0.5;" x1="628.5" x2="773.5" y1="39" y2="39"/><line style="stroke:#181818;stroke-width:0.5;" x1="628.5" x2="773.5" y1="47" y2="47"/><ellipse cx="638.5" cy="61.3047" fill="#84BE84" rx="3" ry="3" style="stroke:#038048;stroke-width:1.0;"/><text fill="#000000" font-family="sans-serif" font-size="14" lengthAdjust="spacing" textLength="121" x="647.5" y="65.5332">main(args: String[])</text></g><!--class SistemaInscripcion--><g id="elem_SistemaInscripcion"><rect codeLine="6" fill="#F1F1F1" height="171.2656" id="SistemaInscripcion" rx="2.5" ry="2.5" style="stroke:#181818;stroke-width:0.5;" width="440" x="481" y="151"/><ellipse cx="638.25" cy="167" fill="#ADD1B2" rx="11" ry="11" style="stroke:#181818;stroke-width:1.0;"/><path d="M641.0156,162.875 Q641.1719,162.6563 641.3594,162.5469 Q641.5469,162.4375 641.7656,162.4375 Q642.1406,162.4375 642.375,162.7031 Q642.6094,162.9531 642.6094,163.5625 L642.6094,165.0156 Q642.6094,165.625 642.375,165.8906 Q642.1406,166.1563 641.7656,166.1563 Q641.4219,166.1563 641.2188,165.9531 Q641.0156,165.7656 640.9063,165.25 Q640.8594,164.8906 640.6719,164.7031 Q640.3438,164.3281 639.7344,164.1094 Q639.125,163.8906 638.5,163.8906 Q637.7344,163.8906 637.0938,164.2188 Q636.4688,164.5469 635.9688,165.2969 Q635.4844,166.0469 635.4844,167.0781 L635.4844,168.1719 Q635.4844,169.4063 636.375,170.2344 Q637.2656,171.0469 638.8594,171.0469 Q639.7969,171.0469 640.4531,170.7969 Q640.8438,170.6406 641.2656,170.2031 Q641.5313,169.9375 641.6719,169.8594 Q641.8281,169.7813 642.0313,169.7813 Q642.3594,169.7813 642.6094,170.0469 Q642.875,170.2969 642.875,170.6406 Q642.875,170.9844 642.5313,171.3906 Q642.0313,171.9688 641.2344,172.2969 Q640.1563,172.75 638.8594,172.75 Q637.3438,172.75 636.1406,172.125 Q635.1563,171.625 634.4688,170.5625 Q633.7813,169.4844 633.7813,168.2031 L633.7813,167.0469 Q633.7813,165.7188 634.3906,164.5781 Q635.0156,163.4219 636.1094,162.8125 Q637.2031,162.1875 638.4375,162.1875 Q639.1719,162.1875 639.8125,162.3594 Q640.4688,162.5156 641.0156,162.875 Z " fill="#000000"/><text fill="#000000" font-family="sans-serif" font-size="14" lengthAdjust="spacing" textLength="117" x="658.75" y="172.7285">SistemaInscripcion</text><line style="stroke:#181818;stroke-width:0.5;" x1="482" x2="920" y1="183" y2="183"/><rect fill="none" height="6" style="stroke:#C82930;stroke-width:1.0;" width="6" x="489" y="194.3047"/><text fill="#000000" font-family="sans-serif" font-size="14" lengthAdjust="spacing" textLength="218" x="501" y="201.5332">static instancia: SistemaInscripcion</text><rect fill="none" height="6" style="stroke:#C82930;stroke-width:1.0;" width="6" x="489" y="211.9141"/><text fill="#000000" font-family="sans-serif" font-size="14" lengthAdjust="spacing" textLength="147" x="501" y="219.1426">materias: List&lt;Materia&gt;</text><line style="stroke:#181818;stroke-width:1.0;" x1="482" x2="920" y1="226.2188" y2="226.2188"/><rect fill="#F24D5C" height="6" style="stroke:#C82930;stroke-width:1.0;" width="6" x="489" y="237.5234"/><text fill="#000000" font-family="sans-serif" font-size="14" lengthAdjust="spacing" textLength="127" x="501" y="244.752">SistemaInscripcion()</text><ellipse cx="492" cy="258.1328" fill="#84BE84" rx="3" ry="3" style="stroke:#038048;stroke-width:1.0;"/><text fill="#000000" font-family="sans-serif" font-size="14" lengthAdjust="spacing" textLength="277" x="501" y="262.3613">static obtenerInstancia(): SistemaInscripcion</text><ellipse cx="492" cy="275.7422" fill="#84BE84" rx="3" ry="3" style="stroke:#038048;stroke-width:1.0;"/><text fill="#000000" font-family="sans-serif" font-size="14" lengthAdjust="spacing" textLength="209" x="501" y="279.9707">agregarMateria(materia: Materia)</text><ellipse cx="492" cy="293.3516" fill="#84BE84" rx="3" ry="3" style="stroke:#038048;stroke-width:1.0;"/><text fill="#000000" font-family="sans-serif" font-size="14" lengthAdjust="spacing" textLength="112" x="501" y="297.5801">mostrarMaterias()</text><ellipse cx="492" cy="310.9609" fill="#84BE84" rx="3" ry="3" style="stroke:#038048;stroke-width:1.0;"/><text fill="#000000" font-family="sans-serif" font-size="14" lengthAdjust="spacing" textLength="414" x="501" y="315.1895">inscribirMateria(nombreEstudiante: String, nombreMateria: String)</text></g><!--class Materia--><g id="elem_Materia"><rect codeLine="17" fill="#F1F1F1" height="136.0469" id="Materia" rx="2.5" ry="2.5" style="stroke:#181818;stroke-width:0.5;" width="316" x="371" y="1034"/><ellipse cx="500.75" cy="1050" fill="#B4A7E5" rx="11" ry="11" style="stroke:#181818;stroke-width:1.0;"/><path d="M501.7031,1046.6406 L501.7031,1053.2969 L503.4219,1053.2969 Q504.0313,1053.2969 504.2969,1053.5313 Q504.5625,1053.7656 504.5625,1054.1563 Q504.5625,1054.5313 504.2969,1054.7656 Q504.0313,1055 503.4219,1055 L498.2813,1055 Q497.6719,1055 497.4063,1054.7656 Q497.1406,1054.5313 497.1406,1054.1406 Q497.1406,1053.7656 497.4063,1053.5313 Q497.6719,1053.2969 498.2813,1053.2969 L500,1053.2969 L500,1046.6406 L498.2813,1046.6406 Q497.6719,1046.6406 497.4063,1046.4063 Q497.1406,1046.1719 497.1406,1045.7813 Q497.1406,1045.4063 497.4063,1045.1719 Q497.6719,1044.9375 498.2813,1044.9375 L503.4219,1044.9375 Q504.0313,1044.9375 504.2969,1045.1719 Q504.5625,1045.4063 504.5625,1045.7813 Q504.5625,1046.1719 504.2969,1046.4063 Q504.0313,1046.6406 503.4219,1046.6406 L501.7031,1046.6406 Z " fill="#000000"/><text fill="#000000" font-family="sans-serif" font-size="14" font-style="italic" lengthAdjust="spacing" textLength="48" x="521.25" y="1055.7285">Materia</text><line style="stroke:#181818;stroke-width:0.5;" x1="372" x2="686" y1="1066" y2="1066"/><line style="stroke:#181818;stroke-width:0.5;" x1="372" x2="686" y1="1074" y2="1074"/><ellipse cx="382" cy="1088.3047" fill="#84BE84" rx="3" ry="3" style="stroke:#038048;stroke-width:1.0;"/><text fill="#000000" font-family="sans-serif" font-size="14" lengthAdjust="spacing" textLength="124" x="391" y="1092.5332">getNombre(): String</text><ellipse cx="382" cy="1105.9141" fill="#84BE84" rx="3" ry="3" style="stroke:#038048;stroke-width:1.0;"/><text fill="#000000" font-family="sans-serif" font-size="14" lengthAdjust="spacing" textLength="94" x="391" y="1110.1426">getCupos(): int</text><ellipse cx="382" cy="1123.5234" fill="#84BE84" rx="3" ry="3" style="stroke:#038048;stroke-width:1.0;"/><text fill="#000000" font-family="sans-serif" font-size="14" lengthAdjust="spacing" textLength="219" x="391" y="1127.752">inscribir(nombreEstudiante: String)</text><ellipse cx="382" cy="1141.1328" fill="#84BE84" rx="3" ry="3" style="stroke:#038048;stroke-width:1.0;"/><text fill="#000000" font-family="sans-serif" font-size="14" lengthAdjust="spacing" textLength="290" x="391" y="1145.3613">agregarObservador(observador: Observador)</text><ellipse cx="382" cy="1158.7422" fill="#84BE84" rx="3" ry="3" style="stroke:#038048;stroke-width:1.0;"/><text fill="#000000" font-family="sans-serif" font-size="14" lengthAdjust="spacing" textLength="248" x="391" y="1162.9707">notificarObservadores(mensaje: String)</text></g><!--class MateriaReal--><g id="elem_MateriaReal"><rect codeLine="25" fill="#F1F1F1" height="224.0938" id="MateriaReal" rx="2.5" ry="2.5" style="stroke:#181818;stroke-width:0.5;" width="316" x="7" y="732"/><ellipse cx="122.75" cy="748" fill="#ADD1B2" rx="11" ry="11" style="stroke:#181818;stroke-width:1.0;"/><path d="M125.5156,743.875 Q125.6719,743.6563 125.8594,743.5469 Q126.0469,743.4375 126.2656,743.4375 Q126.6406,743.4375 126.875,743.7031 Q127.1094,743.9531 127.1094,744.5625 L127.1094,746.0156 Q127.1094,746.625 126.875,746.8906 Q126.6406,747.1563 126.2656,747.1563 Q125.9219,747.1563 125.7188,746.9531 Q125.5156,746.7656 125.4063,746.25 Q125.3594,745.8906 125.1719,745.7031 Q124.8438,745.3281 124.2344,745.1094 Q123.625,744.8906 123,744.8906 Q122.2344,744.8906 121.5938,745.2188 Q120.9688,745.5469 120.4688,746.2969 Q119.9844,747.0469 119.9844,748.0781 L119.9844,749.1719 Q119.9844,750.4063 120.875,751.2344 Q121.7656,752.0469 123.3594,752.0469 Q124.2969,752.0469 124.9531,751.7969 Q125.3438,751.6406 125.7656,751.2031 Q126.0313,750.9375 126.1719,750.8594 Q126.3281,750.7813 126.5313,750.7813 Q126.8594,750.7813 127.1094,751.0469 Q127.375,751.2969 127.375,751.6406 Q127.375,751.9844 127.0313,752.3906 Q126.5313,752.9688 125.7344,753.2969 Q124.6563,753.75 123.3594,753.75 Q121.8438,753.75 120.6406,753.125 Q119.6563,752.625 118.9688,751.5625 Q118.2813,750.4844 118.2813,749.2031 L118.2813,748.0469 Q118.2813,746.7188 118.8906,745.5781 Q119.5156,744.4219 120.6094,743.8125 Q121.7031,743.1875 122.9375,743.1875 Q123.6719,743.1875 124.3125,743.3594 Q124.9688,743.5156 125.5156,743.875 Z " fill="#000000"/><text fill="#000000" font-family="sans-serif" font-size="14" lengthAdjust="spacing" textLength="76" x="143.25" y="753.7285">MateriaReal</text><line style="stroke:#181818;stroke-width:0.5;" x1="8" x2="322" y1="764" y2="764"/><rect fill="none" height="6" style="stroke:#C82930;stroke-width:1.0;" width="6" x="15" y="775.3047"/><text fill="#000000" font-family="sans-serif" font-size="14" lengthAdjust="spacing" textLength="93" x="27" y="782.5332">nombre: String</text><rect fill="none" height="6" style="stroke:#C82930;stroke-width:1.0;" width="6" x="15" y="792.9141"/><text fill="#000000" font-family="sans-serif" font-size="14" lengthAdjust="spacing" textLength="61" x="27" y="800.1426">cupos: int</text><rect fill="none" height="6" style="stroke:#C82930;stroke-width:1.0;" width="6" x="15" y="810.5234"/><text fill="#000000" font-family="sans-serif" font-size="14" lengthAdjust="spacing" textLength="134" x="27" y="817.752">inscritos: Set&lt;String&gt;</text><rect fill="none" height="6" style="stroke:#C82930;stroke-width:1.0;" width="6" x="15" y="828.1328"/><text fill="#000000" font-family="sans-serif" font-size="14" lengthAdjust="spacing" textLength="208" x="27" y="835.3613">observadores: List&lt;Observador&gt;</text><line style="stroke:#181818;stroke-width:1.0;" x1="8" x2="322" y1="842.4375" y2="842.4375"/><ellipse cx="18" cy="856.7422" fill="#84BE84" rx="3" ry="3" style="stroke:#038048;stroke-width:1.0;"/><text fill="#000000" font-family="sans-serif" font-size="14" lengthAdjust="spacing" textLength="248" x="27" y="860.9707">MateriaReal(nombre: String, cupos: int)</text><ellipse cx="18" cy="874.3516" fill="#84BE84" rx="3" ry="3" style="stroke:#038048;stroke-width:1.0;"/><text fill="#000000" font-family="sans-serif" font-size="14" lengthAdjust="spacing" textLength="124" x="27" y="878.5801">getNombre(): String</text><ellipse cx="18" cy="891.9609" fill="#84BE84" rx="3" ry="3" style="stroke:#038048;stroke-width:1.0;"/><text fill="#000000" font-family="sans-serif" font-size="14" lengthAdjust="spacing" textLength="94" x="27" y="896.1895">getCupos(): int</text><ellipse cx="18" cy="909.5703" fill="#84BE84" rx="3" ry="3" style="stroke:#038048;stroke-width:1.0;"/><text fill="#000000" font-family="sans-serif" font-size="14" lengthAdjust="spacing" textLength="219" x="27" y="913.7988">inscribir(nombreEstudiante: String)</text><ellipse cx="18" cy="927.1797" fill="#84BE84" rx="3" ry="3" style="stroke:#038048;stroke-width:1.0;"/><text fill="#000000" font-family="sans-serif" font-size="14" lengthAdjust="spacing" textLength="290" x="27" y="931.4082">agregarObservador(observador: Observador)</text><ellipse cx="18" cy="944.7891" fill="#84BE84" rx="3" ry="3" style="stroke:#038048;stroke-width:1.0;"/><text fill="#000000" font-family="sans-serif" font-size="14" lengthAdjust="spacing" textLength="248" x="27" y="949.0176">notificarObservadores(mensaje: String)</text></g><!--class MateriaProxy--><g id="elem_MateriaProxy"><rect codeLine="39" fill="#F1F1F1" height="171.2656" id="MateriaProxy" rx="2.5" ry="2.5" style="stroke:#181818;stroke-width:0.5;" width="316" x="218" y="400"/><ellipse cx="330.75" cy="416" fill="#ADD1B2" rx="11" ry="11" style="stroke:#181818;stroke-width:1.0;"/><path d="M333.5156,411.875 Q333.6719,411.6563 333.8594,411.5469 Q334.0469,411.4375 334.2656,411.4375 Q334.6406,411.4375 334.875,411.7031 Q335.1094,411.9531 335.1094,412.5625 L335.1094,414.0156 Q335.1094,414.625 334.875,414.8906 Q334.6406,415.1563 334.2656,415.1563 Q333.9219,415.1563 333.7188,414.9531 Q333.5156,414.7656 333.4063,414.25 Q333.3594,413.8906 333.1719,413.7031 Q332.8438,413.3281 332.2344,413.1094 Q331.625,412.8906 331,412.8906 Q330.2344,412.8906 329.5938,413.2188 Q328.9688,413.5469 328.4688,414.2969 Q327.9844,415.0469 327.9844,416.0781 L327.9844,417.1719 Q327.9844,418.4063 328.875,419.2344 Q329.7656,420.0469 331.3594,420.0469 Q332.2969,420.0469 332.9531,419.7969 Q333.3438,419.6406 333.7656,419.2031 Q334.0313,418.9375 334.1719,418.8594 Q334.3281,418.7813 334.5313,418.7813 Q334.8594,418.7813 335.1094,419.0469 Q335.375,419.2969 335.375,419.6406 Q335.375,419.9844 335.0313,420.3906 Q334.5313,420.9688 333.7344,421.2969 Q332.6563,421.75 331.3594,421.75 Q329.8438,421.75 328.6406,421.125 Q327.6563,420.625 326.9688,419.5625 Q326.2813,418.4844 326.2813,417.2031 L326.2813,416.0469 Q326.2813,414.7188 326.8906,413.5781 Q327.5156,412.4219 328.6094,411.8125 Q329.7031,411.1875 330.9375,411.1875 Q331.6719,411.1875 332.3125,411.3594 Q332.9688,411.5156 333.5156,411.875 Z " fill="#000000"/><text fill="#000000" font-family="sans-serif" font-size="14" lengthAdjust="spacing" textLength="82" x="351.25" y="421.7285">MateriaProxy</text><line style="stroke:#181818;stroke-width:0.5;" x1="219" x2="533" y1="432" y2="432"/><rect fill="none" height="6" style="stroke:#C82930;stroke-width:1.0;" width="6" x="226" y="443.3047"/><text fill="#000000" font-family="sans-serif" font-size="14" lengthAdjust="spacing" textLength="160" x="238" y="450.5332">materiaReal: MateriaReal</text><line style="stroke:#181818;stroke-width:1.0;" x1="219" x2="533" y1="457.6094" y2="457.6094"/><ellipse cx="229" cy="471.9141" fill="#84BE84" rx="3" ry="3" style="stroke:#038048;stroke-width:1.0;"/><text fill="#000000" font-family="sans-serif" font-size="14" lengthAdjust="spacing" textLength="254" x="238" y="476.1426">MateriaProxy(nombre: String, cupos: int)</text><ellipse cx="229" cy="489.5234" fill="#84BE84" rx="3" ry="3" style="stroke:#038048;stroke-width:1.0;"/><text fill="#000000" font-family="sans-serif" font-size="14" lengthAdjust="spacing" textLength="124" x="238" y="493.752">getNombre(): String</text><ellipse cx="229" cy="507.1328" fill="#84BE84" rx="3" ry="3" style="stroke:#038048;stroke-width:1.0;"/><text fill="#000000" font-family="sans-serif" font-size="14" lengthAdjust="spacing" textLength="94" x="238" y="511.3613">getCupos(): int</text><ellipse cx="229" cy="524.7422" fill="#84BE84" rx="3" ry="3" style="stroke:#038048;stroke-width:1.0;"/><text fill="#000000" font-family="sans-serif" font-size="14" lengthAdjust="spacing" textLength="219" x="238" y="528.9707">inscribir(nombreEstudiante: String)</text><ellipse cx="229" cy="542.3516" fill="#84BE84" rx="3" ry="3" style="stroke:#038048;stroke-width:1.0;"/><text fill="#000000" font-family="sans-serif" font-size="14" lengthAdjust="spacing" textLength="290" x="238" y="546.5801">agregarObservador(observador: Observador)</text><ellipse cx="229" cy="559.9609" fill="#84BE84" rx="3" ry="3" style="stroke:#038048;stroke-width:1.0;"/><text fill="#000000" font-family="sans-serif" font-size="14" lengthAdjust="spacing" textLength="248" x="238" y="564.1895">notificarObservadores(mensaje: String)</text></g><!--class MateriaConHistorial--><g id="elem_MateriaConHistorial"><rect codeLine="50" fill="#F1F1F1" height="206.4844" id="MateriaConHistorial" rx="2.5" ry="2.5" style="stroke:#181818;stroke-width:0.5;" width="316" x="429" y="741"/><ellipse cx="521.25" cy="757" fill="#ADD1B2" rx="11" ry="11" style="stroke:#181818;stroke-width:1.0;"/><path d="M524.0156,752.875 Q524.1719,752.6563 524.3594,752.5469 Q524.5469,752.4375 524.7656,752.4375 Q525.1406,752.4375 525.375,752.7031 Q525.6094,752.9531 525.6094,753.5625 L525.6094,755.0156 Q525.6094,755.625 525.375,755.8906 Q525.1406,756.1563 524.7656,756.1563 Q524.4219,756.1563 524.2188,755.9531 Q524.0156,755.7656 523.9063,755.25 Q523.8594,754.8906 523.6719,754.7031 Q523.3438,754.3281 522.7344,754.1094 Q522.125,753.8906 521.5,753.8906 Q520.7344,753.8906 520.0938,754.2188 Q519.4688,754.5469 518.9688,755.2969 Q518.4844,756.0469 518.4844,757.0781 L518.4844,758.1719 Q518.4844,759.4063 519.375,760.2344 Q520.2656,761.0469 521.8594,761.0469 Q522.7969,761.0469 523.4531,760.7969 Q523.8438,760.6406 524.2656,760.2031 Q524.5313,759.9375 524.6719,759.8594 Q524.8281,759.7813 525.0313,759.7813 Q525.3594,759.7813 525.6094,760.0469 Q525.875,760.2969 525.875,760.6406 Q525.875,760.9844 525.5313,761.3906 Q525.0313,761.9688 524.2344,762.2969 Q523.1563,762.75 521.8594,762.75 Q520.3438,762.75 519.1406,762.125 Q518.1563,761.625 517.4688,760.5625 Q516.7813,759.4844 516.7813,758.2031 L516.7813,757.0469 Q516.7813,755.7188 517.3906,754.5781 Q518.0156,753.4219 519.1094,752.8125 Q520.2031,752.1875 521.4375,752.1875 Q522.1719,752.1875 522.8125,752.3594 Q523.4688,752.5156 524.0156,752.875 Z " fill="#000000"/><text fill="#000000" font-family="sans-serif" font-size="14" lengthAdjust="spacing" textLength="123" x="541.75" y="762.7285">MateriaConHistorial</text><line style="stroke:#181818;stroke-width:0.5;" x1="430" x2="744" y1="773" y2="773"/><rect fill="none" height="6" style="stroke:#C82930;stroke-width:1.0;" width="6" x="437" y="784.3047"/><text fill="#000000" font-family="sans-serif" font-size="14" lengthAdjust="spacing" textLength="164" x="449" y="791.5332">materiaDecorada: Materia</text><rect fill="none" height="6" style="stroke:#C82930;stroke-width:1.0;" width="6" x="437" y="801.9141"/><text fill="#000000" font-family="sans-serif" font-size="14" lengthAdjust="spacing" textLength="132" x="449" y="809.1426">historial: List&lt;String&gt;</text><line style="stroke:#181818;stroke-width:1.0;" x1="430" x2="744" y1="816.2188" y2="816.2188"/><ellipse cx="440" cy="830.5234" fill="#84BE84" rx="3" ry="3" style="stroke:#038048;stroke-width:1.0;"/><text fill="#000000" font-family="sans-serif" font-size="14" lengthAdjust="spacing" textLength="235" x="449" y="834.752">MateriaConHistorial(materia: Materia)</text><ellipse cx="440" cy="848.1328" fill="#84BE84" rx="3" ry="3" style="stroke:#038048;stroke-width:1.0;"/><text fill="#000000" font-family="sans-serif" font-size="14" lengthAdjust="spacing" textLength="124" x="449" y="852.3613">getNombre(): String</text><ellipse cx="440" cy="865.7422" fill="#84BE84" rx="3" ry="3" style="stroke:#038048;stroke-width:1.0;"/><text fill="#000000" font-family="sans-serif" font-size="14" lengthAdjust="spacing" textLength="94" x="449" y="869.9707">getCupos(): int</text><ellipse cx="440" cy="883.3516" fill="#84BE84" rx="3" ry="3" style="stroke:#038048;stroke-width:1.0;"/><text fill="#000000" font-family="sans-serif" font-size="14" lengthAdjust="spacing" textLength="219" x="449" y="887.5801">inscribir(nombreEstudiante: String)</text><ellipse cx="440" cy="900.9609" fill="#84BE84" rx="3" ry="3" style="stroke:#038048;stroke-width:1.0;"/><text fill="#000000" font-family="sans-serif" font-size="14" lengthAdjust="spacing" textLength="290" x="449" y="905.1895">agregarObservador(observador: Observador)</text><ellipse cx="440" cy="918.5703" fill="#84BE84" rx="3" ry="3" style="stroke:#038048;stroke-width:1.0;"/><text fill="#000000" font-family="sans-serif" font-size="14" lengthAdjust="spacing" textLength="248" x="449" y="922.7988">notificarObservadores(mensaje: String)</text><ellipse cx="440" cy="936.1797" fill="#84BE84" rx="3" ry="3" style="stroke:#038048;stroke-width:1.0;"/><text fill="#000000" font-family="sans-serif" font-size="14" lengthAdjust="spacing" textLength="163" x="449" y="940.4082">getHistorial(): List&lt;String&gt;</text></g><!--class Observador--><g id="elem_Observador"><rect codeLine="63" fill="#F1F1F1" height="65.6094" id="Observador" rx="2.5" ry="2.5" style="stroke:#181818;stroke-width:0.5;" width="194" x="432" y="1248"/><ellipse cx="487.75" cy="1264" fill="#B4A7E5" rx="11" ry="11" style="stroke:#181818;stroke-width:1.0;"/><path d="M488.7031,1260.6406 L488.7031,1267.2969 L490.4219,1267.2969 Q491.0313,1267.2969 491.2969,1267.5313 Q491.5625,1267.7656 491.5625,1268.1563 Q491.5625,1268.5313 491.2969,1268.7656 Q491.0313,1269 490.4219,1269 L485.2813,1269 Q484.6719,1269 484.4063,1268.7656 Q484.1406,1268.5313 484.1406,1268.1406 Q484.1406,1267.7656 484.4063,1267.5313 Q484.6719,1267.2969 485.2813,1267.2969 L487,1267.2969 L487,1260.6406 L485.2813,1260.6406 Q484.6719,1260.6406 484.4063,1260.4063 Q484.1406,1260.1719 484.1406,1259.7813 Q484.1406,1259.4063 484.4063,1259.1719 Q484.6719,1258.9375 485.2813,1258.9375 L490.4219,1258.9375 Q491.0313,1258.9375 491.2969,1259.1719 Q491.5625,1259.4063 491.5625,1259.7813 Q491.5625,1260.1719 491.2969,1260.4063 Q491.0313,1260.6406 490.4219,1260.6406 L488.7031,1260.6406 Z " fill="#000000"/><text fill="#000000" font-family="sans-serif" font-size="14" font-style="italic" lengthAdjust="spacing" textLength="74" x="508.25" y="1269.7285">Observador</text><line style="stroke:#181818;stroke-width:0.5;" x1="433" x2="625" y1="1280" y2="1280"/><line style="stroke:#181818;stroke-width:0.5;" x1="433" x2="625" y1="1288" y2="1288"/><ellipse cx="443" cy="1302.3047" fill="#84BE84" rx="3" ry="3" style="stroke:#038048;stroke-width:1.0;"/><text fill="#000000" font-family="sans-serif" font-size="14" lengthAdjust="spacing" textLength="168" x="452" y="1306.5332">actualizar(mensaje: String)</text></g><!--class EstudianteObservador--><g id="elem_EstudianteObservador"><rect codeLine="67" fill="#F1F1F1" height="100.8281" id="EstudianteObservador" rx="2.5" ry="2.5" style="stroke:#181818;stroke-width:0.5;" width="271" x="904.5" y="601"/><ellipse cx="964.75" cy="617" fill="#ADD1B2" rx="11" ry="11" style="stroke:#181818;stroke-width:1.0;"/><path d="M967.5156,612.875 Q967.6719,612.6563 967.8594,612.5469 Q968.0469,612.4375 968.2656,612.4375 Q968.6406,612.4375 968.875,612.7031 Q969.1094,612.9531 969.1094,613.5625 L969.1094,615.0156 Q969.1094,615.625 968.875,615.8906 Q968.6406,616.1563 968.2656,616.1563 Q967.9219,616.1563 967.7188,615.9531 Q967.5156,615.7656 967.4063,615.25 Q967.3594,614.8906 967.1719,614.7031 Q966.8438,614.3281 966.2344,614.1094 Q965.625,613.8906 965,613.8906 Q964.2344,613.8906 963.5938,614.2188 Q962.9688,614.5469 962.4688,615.2969 Q961.9844,616.0469 961.9844,617.0781 L961.9844,618.1719 Q961.9844,619.4063 962.875,620.2344 Q963.7656,621.0469 965.3594,621.0469 Q966.2969,621.0469 966.9531,620.7969 Q967.3438,620.6406 967.7656,620.2031 Q968.0313,619.9375 968.1719,619.8594 Q968.3281,619.7813 968.5313,619.7813 Q968.8594,619.7813 969.1094,620.0469 Q969.375,620.2969 969.375,620.6406 Q969.375,620.9844 969.0313,621.3906 Q968.5313,621.9688 967.7344,622.2969 Q966.6563,622.75 965.3594,622.75 Q963.8438,622.75 962.6406,622.125 Q961.6563,621.625 960.9688,620.5625 Q960.2813,619.4844 960.2813,618.2031 L960.2813,617.0469 Q960.2813,615.7188 960.8906,614.5781 Q961.5156,613.4219 962.6094,612.8125 Q963.7031,612.1875 964.9375,612.1875 Q965.6719,612.1875 966.3125,612.3594 Q966.9688,612.5156 967.5156,612.875 Z " fill="#000000"/><text fill="#000000" font-family="sans-serif" font-size="14" lengthAdjust="spacing" textLength="142" x="985.25" y="622.7285">EstudianteObservador</text><line style="stroke:#181818;stroke-width:0.5;" x1="905.5" x2="1174.5" y1="633" y2="633"/><rect fill="none" height="6" style="stroke:#C82930;stroke-width:1.0;" width="6" x="912.5" y="644.3047"/><text fill="#000000" font-family="sans-serif" font-size="14" lengthAdjust="spacing" textLength="93" x="924.5" y="651.5332">nombre: String</text><line style="stroke:#181818;stroke-width:1.0;" x1="905.5" x2="1174.5" y1="658.6094" y2="658.6094"/><ellipse cx="915.5" cy="672.9141" fill="#84BE84" rx="3" ry="3" style="stroke:#038048;stroke-width:1.0;"/><text fill="#000000" font-family="sans-serif" font-size="14" lengthAdjust="spacing" textLength="245" x="924.5" y="677.1426">EstudianteObservador(nombre: String)</text><ellipse cx="915.5" cy="690.5234" fill="#84BE84" rx="3" ry="3" style="stroke:#038048;stroke-width:1.0;"/><text fill="#000000" font-family="sans-serif" font-size="14" lengthAdjust="spacing" textLength="168" x="924.5" y="694.752">actualizar(mensaje: String)</text></g><!--link InterfazApp to SistemaInscripcion--><g id="link_InterfazApp_SistemaInscripcion"><path codeLine="75" d="M701,73.12 C701,94.37 701,117.31 701,144.87 " fill="none" id="InterfazApp-to-SistemaInscripcion" style="stroke:#181818;stroke-width:1.0;"/><polygon fill="#181818" points="701,150.87,705,141.87,701,145.87,697,141.87,701,150.87" style="stroke:#181818;stroke-width:1.0;"/><text fill="#000000" font-family="sans-serif" font-size="13" lengthAdjust="spacing" textLength="52" x="702" y="117.4951">instancia</text></g><!--link SistemaInscripcion to Materia--><g id="link_SistemaInscripcion_Materia"><path codeLine="76" d="M720,322.28 C755.33,488.29 822.38,849.34 763,956 C745.33,987.73 722.5094,1010.0625 692.1494,1030.4725 " fill="none" id="SistemaInscripcion-to-Materia" style="stroke:#181818;stroke-width:1.0;"/><polygon fill="#181818" points="687.17,1033.82,696.8707,1032.1184,691.3195,1031.0304,692.4074,1025.4792,687.17,1033.82" style="stroke:#181818;stroke-width:1.0;"/><text fill="#000000" font-family="sans-serif" font-size="13" lengthAdjust="spacing" textLength="99" x="781" y="656.9951">mantiene lista de</text></g><!--link MateriaReal to Materia--><g id="link_MateriaReal_Materia"><path codeLine="77" d="M286.97,956.12 C307.44,972.92 328.9,989.46 350,1004 C364.99,1014.33 365.6503,1015.3461 381.9703,1024.8861 " fill="none" id="MateriaReal-to-Materia" style="stroke:#181818;stroke-width:1.0;stroke-dasharray:7.0,7.0;"/><polygon fill="none" points="397.51,1033.97,384.9982,1019.7062,378.9423,1030.066,397.51,1033.97" style="stroke:#181818;stroke-width:1.0;"/></g><!--link MateriaProxy to Materia--><g id="link_MateriaProxy_Materia"><path codeLine="78" d="M367.45,571.3 C361.01,668.02 360.53,829.17 411,956 C422.22,984.2 429.3722,997.3913 448.6722,1020.2313 " fill="none" id="MateriaProxy-to-Materia" style="stroke:#181818;stroke-width:1.0;stroke-dasharray:7.0,7.0;"/><polygon fill="none" points="460.29,1033.98,453.2551,1016.3587,444.0893,1024.1039,460.29,1033.98" style="stroke:#181818;stroke-width:1.0;"/></g><!--link MateriaConHistorial to Materia--><g id="link_MateriaConHistorial_Materia"><path codeLine="79" d="M560.11,947.25 C556.92,960.26 553.81,973.42 551,986 C547.55,1001.47 547.578,1000.5275 544.528,1016.2975 " fill="none" id="MateriaConHistorial-to-Materia" style="stroke:#181818;stroke-width:1.0;stroke-dasharray:7.0,7.0;"/><polygon fill="none" points="541.11,1033.97,550.4188,1017.4368,538.6371,1015.1582,541.11,1033.97" style="stroke:#181818;stroke-width:1.0;"/></g><!--link MateriaConHistorial to Materia--><g id="link_MateriaConHistorial_Materia"><path codeLine="83" d="M563.83,947.28 C557.23,976.39 551.5457,1001.4983 545.5557,1027.9383 " fill="none" id="MateriaConHistorial-to-Materia-1" style="stroke:#181818;stroke-width:1.0;"/><polygon fill="#181818" points="544.23,1033.79,550.1197,1025.8962,545.3348,1028.9136,542.3174,1024.1286,544.23,1033.79" style="stroke:#181818;stroke-width:1.0;"/><text fill="#000000" font-family="sans-serif" font-size="13" lengthAdjust="spacing" textLength="63" x="556" y="1000.4951">decoraci&#243;n</text></g><!--link Materia to Observador--><g id="link_Materia_Observador"><path codeLine="80" d="M529,1170.17 C529,1196.77 529,1220.1 529,1241.76 " fill="none" id="Materia-to-Observador" style="stroke:#181818;stroke-width:1.0;stroke-dasharray:7.0,7.0;"/><polygon fill="#181818" points="529,1247.76,533,1238.76,529,1242.76,525,1238.76,529,1247.76" style="stroke:#181818;stroke-width:1.0;"/><text fill="#000000" font-family="sans-serif" font-size="13" lengthAdjust="spacing" textLength="52" x="530" y="1214.4951">notifica a</text></g><!--link EstudianteObservador to Observador--><g id="link_EstudianteObservador_Observador"><path codeLine="81" d="M1017.82,702.31 C971.58,801.66 856.41,1027.16 704,1170 C670.88,1201.04 643.483,1219.5072 608.333,1239.0972 " fill="none" id="EstudianteObservador-to-Observador" style="stroke:#181818;stroke-width:1.0;stroke-dasharray:7.0,7.0;"/><polygon fill="none" points="592.61,1247.86,611.2539,1244.3382,605.4121,1233.8562,592.61,1247.86" style="stroke:#181818;stroke-width:1.0;"/></g><!--link MateriaProxy to MateriaReal--><g id="link_MateriaProxy_MateriaReal"><path codeLine="82" d="M306.48,571.09 C299.27,580.97 292.29,591.07 286,601 C259.91,642.16 237.7005,684.3076 217.4105,726.2976 " fill="none" id="MateriaProxy-to-MateriaReal" style="stroke:#181818;stroke-width:1.0;"/><polygon fill="#181818" points="214.8,731.7,222.3173,725.3368,216.9754,727.198,215.1141,721.8562,214.8,731.7" style="stroke:#181818;stroke-width:1.0;"/><text fill="#000000" font-family="sans-serif" font-size="13" lengthAdjust="spacing" textLength="62" x="287" y="656.9951">delegaci&#243;n</text></g><!--link SistemaInscripcion to MateriaConHistorial--><g id="link_SistemaInscripcion_MateriaConHistorial"><path codeLine="86" d="M682.8692,333.8027 C662.1992,443.5627 629.4903,617.3136 607.3203,735.0536 " fill="none" id="SistemaInscripcion-MateriaConHistorial" style="stroke:#181818;stroke-width:1.0;"/><polygon fill="none" points="685.09,322.01,680.0487,327.1661,682.8692,333.8027,687.9105,328.6466,685.09,322.01" style="stroke:#181818;stroke-width:1.0;"/><polygon fill="#181818" points="606.21,740.95,611.8063,732.8456,607.1352,736.0363,603.9445,731.3653,606.21,740.95" style="stroke:#181818;stroke-width:1.0;"/><text fill="#000000" font-family="sans-serif" font-size="13" lengthAdjust="spacing" textLength="39" x="671" y="490.9951">agrega</text></g><!--link SistemaInscripcion to MateriaProxy--><g id="link_SistemaInscripcion_MateriaProxy"><path codeLine="87" d="M580.0559,329.4209 C546.9759,354.5609 525.0867,371.1891 492.0267,396.3191 " fill="none" id="SistemaInscripcion-MateriaProxy" style="stroke:#181818;stroke-width:1.0;"/><polygon fill="none" points="589.61,322.16,582.4127,322.6057,580.0559,329.4209,587.2533,328.9751,589.61,322.16" style="stroke:#181818;stroke-width:1.0;"/><polygon fill="#181818" points="487.25,399.95,496.8356,397.6881,491.2306,396.9242,491.9944,391.3192,487.25,399.95" style="stroke:#181818;stroke-width:1.0;"/><text fill="#000000" font-family="sans-serif" font-size="13" lengthAdjust="spacing" textLength="25" x="550" y="366.4951">crea</text></g><!--link SistemaInscripcion to EstudianteObservador--><g id="link_SistemaInscripcion_EstudianteObservador"><path codeLine="88" d="M795.89,322.26 C805.66,332.03 815.21,342.05 824,352 C896.44,433.96 965.2034,534.5837 1005.0534,595.7137 " fill="none" id="SistemaInscripcion-to-EstudianteObservador" style="stroke:#181818;stroke-width:1.0;stroke-dasharray:7.0,7.0;"/><polygon fill="#181818" points="1008.33,600.74,1006.766,591.0161,1005.5995,596.5514,1000.0642,595.3849,1008.33,600.74" style="stroke:#181818;stroke-width:1.0;"/><text fill="#000000" font-family="sans-serif" font-size="13" lengthAdjust="spacing" textLength="118" x="838" y="366.4951">asigna observadores</text></g><!--link MateriaReal to Observador--><g id="link_MateriaReal_Observador"><path codeLine="89" d="M178.89,956.09 C192.68,1025.01 220.02,1111.3 274,1170 C315.53,1215.16 373.0404,1240.8514 426.1504,1257.0314 " fill="none" id="MateriaReal-to-Observador" style="stroke:#181818;stroke-width:1.0;"/><polygon fill="#181818" points="431.89,1258.78,424.4464,1252.3308,427.107,1257.3229,422.115,1259.9835,431.89,1258.78" style="stroke:#181818;stroke-width:1.0;"/><text fill="#000000" font-family="sans-serif" font-size="13" lengthAdjust="spacing" textLength="77" x="275" y="1107.4951">gestiona lista</text></g><!--SRC=[vLR1RjGm4BtdAwnSccYRVa1KhOIsIApK0keU4OTPPnfS9NPaUn4K-2e-WHzZaZY9dNg1Ax2dn7upxytpnBCNRDU0GSCwBIGN7JHe4avBXksbHVq0Jo-wZdr96Fqsh0KXCz2rATd1KaJzxdsUV4jSn44OYotifU5QT5mewG8BPYnOmPcGz40yK4R03je2yGeWYbk2ND-Dhzjnjt2Wvz5PxZGwAdMqA57l9yOiFykvOL1hh44xhin9A9bRc5AtobWzmynCAOQ4Hp4daAezQdnfxAaIG3vETbsoSUTk8XYN1m_5w3V7YNLslKRxUWWRQXWYbftTgLEctw3ujPopElAmxZT7W_eZL4fdQduisR8yuQMoua5mFm9Drg8qy8X1DMD7k4hk4Pgv5KPDGI45utqLIms5gy7sYmUqroFODG5J7hjhaqLGq2aRNq8MKbzwhFc_OlLRhJvzdhrkb-9BtuceHKFe_-3HJibNr3EA7fkrLJV8bOPg-VRTzeSfmFLRq90h8_tyP- -Ilyx5MTnIMxuo8xZ5bcppHGRSdg0HJw1_SKXBOSyon2-FoVrOuAgTypyJSi7kiO5-Fj1aH6arCZwCoSGVYaMnZOsyagNpc4kJ2A2Fcwvu0hUaMD2eOWr1WLMO9lwrUNNrTOOdmKSUsmbQEmQWnQr_D2HWEdz6SgFc3tcMzr25LysWbn9Ms503Sl7ZkqoZmbOELCCtv_1a_WrsA2li3JGCAj6xDlmnYPYfl5m11-KTFuJqTs5Z7OJd6kFethEeCps94RM4O2I51zWpXI4r6jkND9vu-XC0]--></g></svg>