<?xml version="1.0" encoding="us-ascii" standalone="no"?><svg xmlns="http://www.w3.org/2000/svg" xmlns:xlink="http://www.w3.org/1999/xlink" contentStyleType="text/css" height="509px" preserveAspectRatio="none" style="width:1404px;height:509px;background:#FFFFFF;" version="1.1" viewBox="0 0 1404 509" width="1404px" zoomAndPan="magnify"><defs/><g><line style="stroke:#181818;stroke-width:0.5;stroke-dasharray:5.0,5.0;" x1="41" x2="41" y1="82.6094" y2="427.7734"/><line style="stroke:#181818;stroke-width:0.5;stroke-dasharray:5.0,5.0;" x1="333" x2="333" y1="82.6094" y2="427.7734"/><line style="stroke:#181818;stroke-width:0.5;stroke-dasharray:5.0,5.0;" x1="457" x2="457" y1="82.6094" y2="427.7734"/><line style="stroke:#181818;stroke-width:0.5;stroke-dasharray:5.0,5.0;" x1="613" x2="613" y1="82.6094" y2="427.7734"/><line style="stroke:#181818;stroke-width:0.5;stroke-dasharray:5.0,5.0;" x1="1097" x2="1097" y1="82.6094" y2="427.7734"/><line style="stroke:#181818;stroke-width:0.5;stroke-dasharray:5.0,5.0;" x1="1265" x2="1265" y1="82.6094" y2="427.7734"/><text fill="#000000" font-family="sans-serif" font-size="14" lengthAdjust="spacing" textLength="67" x="5" y="79.5332">Estudiante</text><ellipse cx="41.5" cy="13.5" fill="#E2E2F0" rx="8" ry="8" style="stroke:#181818;stroke-width:0.5;"/><path d="M41.5,21.5 L41.5,48.5 M28.5,29.5 L54.5,29.5 M41.5,48.5 L28.5,63.5 M41.5,48.5 L54.5,63.5 " fill="none" style="stroke:#181818;stroke-width:0.5;"/><text fill="#000000" font-family="sans-serif" font-size="14" lengthAdjust="spacing" textLength="67" x="5" y="441.3066">Estudiante</text><ellipse cx="41.5" cy="452.8828" fill="#E2E2F0" rx="8" ry="8" style="stroke:#181818;stroke-width:0.5;"/><path d="M41.5,460.8828 L41.5,487.8828 M28.5,468.8828 L54.5,468.8828 M41.5,487.8828 L28.5,502.8828 M41.5,487.8828 L54.5,502.8828 " fill="none" style="stroke:#181818;stroke-width:0.5;"/><rect fill="#E2E2F0" height="31.6094" rx="2.5" ry="2.5" style="stroke:#181818;stroke-width:0.5;" width="131" x="268" y="50"/><text fill="#000000" font-family="sans-serif" font-size="14" lengthAdjust="spacing" textLength="117" x="275" y="71.5332">SistemaInscripcion</text><rect fill="#E2E2F0" height="31.6094" rx="2.5" ry="2.5" style="stroke:#181818;stroke-width:0.5;" width="131" x="268" y="426.7734"/><text fill="#000000" font-family="sans-serif" font-size="14" lengthAdjust="spacing" textLength="117" x="275" y="448.3066">SistemaInscripcion</text><rect fill="#E2E2F0" height="31.6094" rx="2.5" ry="2.5" style="stroke:#181818;stroke-width:0.5;" width="96" x="409" y="50"/><text fill="#000000" font-family="sans-serif" font-size="14" lengthAdjust="spacing" textLength="82" x="416" y="71.5332">MateriaProxy</text><rect fill="#E2E2F0" height="31.6094" rx="2.5" ry="2.5" style="stroke:#181818;stroke-width:0.5;" width="96" x="409" y="426.7734"/><text fill="#000000" font-family="sans-serif" font-size="14" lengthAdjust="spacing" textLength="82" x="416" y="448.3066">MateriaProxy</text><rect fill="#E2E2F0" height="31.6094" rx="2.5" ry="2.5" style="stroke:#181818;stroke-width:0.5;" width="90" x="568" y="50"/><text fill="#000000" font-family="sans-serif" font-size="14" lengthAdjust="spacing" textLength="76" x="575" y="71.5332">MateriaReal</text><rect fill="#E2E2F0" height="31.6094" rx="2.5" ry="2.5" style="stroke:#181818;stroke-width:0.5;" width="90" x="568" y="426.7734"/><text fill="#000000" font-family="sans-serif" font-size="14" lengthAdjust="spacing" textLength="76" x="575" y="448.3066">MateriaReal</text><rect fill="#E2E2F0" height="31.6094" rx="2.5" ry="2.5" style="stroke:#181818;stroke-width:0.5;" width="160" x="1017" y="50"/><text fill="#000000" font-family="sans-serif" font-size="14" lengthAdjust="spacing" textLength="146" x="1024" y="71.5332">MateriaConVerificacion</text><rect fill="#E2E2F0" height="31.6094" rx="2.5" ry="2.5" style="stroke:#181818;stroke-width:0.5;" width="160" x="1017" y="426.7734"/><text fill="#000000" font-family="sans-serif" font-size="14" lengthAdjust="spacing" textLength="146" x="1024" y="448.3066">MateriaConVerificacion</text><rect fill="#E2E2F0" height="31.6094" rx="2.5" ry="2.5" style="stroke:#181818;stroke-width:0.5;" width="156" x="1187" y="50"/><text fill="#000000" font-family="sans-serif" font-size="14" lengthAdjust="spacing" textLength="142" x="1194" y="71.5332">EstudianteObservador</text><rect fill="#E2E2F0" height="31.6094" rx="2.5" ry="2.5" style="stroke:#181818;stroke-width:0.5;" width="156" x="1187" y="426.7734"/><text fill="#000000" font-family="sans-serif" font-size="14" lengthAdjust="spacing" textLength="142" x="1194" y="448.3066">EstudianteObservador</text><polygon fill="#181818" points="321.5,110.9609,331.5,114.9609,321.5,118.9609,325.5,114.9609" style="stroke:#181818;stroke-width:1.0;"/><line style="stroke:#181818;stroke-width:1.0;" x1="41.5" x2="327.5" y1="114.9609" y2="114.9609"/><text fill="#000000" font-family="sans-serif" font-size="13" lengthAdjust="spacing" textLength="268" x="48.5" y="110.1045">inscribirMateria("Estudiante1", "Matem&#225;ticas")</text><polygon fill="#181818" points="1085,141.3125,1095,145.3125,1085,149.3125,1089,145.3125" style="stroke:#181818;stroke-width:1.0;"/><line style="stroke:#181818;stroke-width:1.0;" x1="333.5" x2="1091" y1="145.3125" y2="145.3125"/><text fill="#000000" font-family="sans-serif" font-size="13" lengthAdjust="spacing" textLength="132" x="340.5" y="140.4561">inscribir("Estudiante1")</text><polygon fill="#181818" points="468,171.6641,458,175.6641,468,179.6641,464,175.6641" style="stroke:#181818;stroke-width:1.0;"/><line style="stroke:#181818;stroke-width:1.0;" x1="462" x2="1096" y1="175.6641" y2="175.6641"/><text fill="#000000" font-family="sans-serif" font-size="13" lengthAdjust="spacing" textLength="132" x="474" y="170.8076">inscribir("Estudiante1")</text><polygon fill="#181818" points="601,202.0156,611,206.0156,601,210.0156,605,206.0156" style="stroke:#181818;stroke-width:1.0;"/><line style="stroke:#181818;stroke-width:1.0;" x1="457" x2="607" y1="206.0156" y2="206.0156"/><text fill="#000000" font-family="sans-serif" font-size="13" lengthAdjust="spacing" textLength="132" x="464" y="201.1592">inscribir("Estudiante1")</text><line style="stroke:#181818;stroke-width:1.0;" x1="613" x2="655" y1="236.3672" y2="236.3672"/><line style="stroke:#181818;stroke-width:1.0;" x1="655" x2="655" y1="236.3672" y2="249.3672"/><line style="stroke:#181818;stroke-width:1.0;" x1="614" x2="655" y1="249.3672" y2="249.3672"/><polygon fill="#181818" points="624,245.3672,614,249.3672,624,253.3672,620,249.3672" style="stroke:#181818;stroke-width:1.0;"/><text fill="#000000" font-family="sans-serif" font-size="13" lengthAdjust="spacing" textLength="88" x="620" y="231.5107">verificarCupos()</text><line style="stroke:#181818;stroke-width:1.0;" x1="613" x2="655" y1="279.7188" y2="279.7188"/><line style="stroke:#181818;stroke-width:1.0;" x1="655" x2="655" y1="279.7188" y2="292.7188"/><line style="stroke:#181818;stroke-width:1.0;" x1="614" x2="655" y1="292.7188" y2="292.7188"/><polygon fill="#181818" points="624,288.7188,614,292.7188,624,296.7188,620,292.7188" style="stroke:#181818;stroke-width:1.0;"/><text fill="#000000" font-family="sans-serif" font-size="13" lengthAdjust="spacing" textLength="192" x="620" y="274.8623">agregarEstudiante("Estudiante1")</text><line style="stroke:#181818;stroke-width:1.0;" x1="613" x2="655" y1="323.0703" y2="323.0703"/><line style="stroke:#181818;stroke-width:1.0;" x1="655" x2="655" y1="323.0703" y2="336.0703"/><line style="stroke:#181818;stroke-width:1.0;" x1="614" x2="655" y1="336.0703" y2="336.0703"/><polygon fill="#181818" points="624,332.0703,614,336.0703,624,340.0703,620,336.0703" style="stroke:#181818;stroke-width:1.0;"/><text fill="#000000" font-family="sans-serif" font-size="13" lengthAdjust="spacing" textLength="470" x="620" y="318.2139">notificarObservadores("El estudiante Estudiante1 se ha inscrito en Matem&#225;ticas")</text><polygon fill="#181818" points="1253,362.4219,1263,366.4219,1253,370.4219,1257,366.4219" style="stroke:#181818;stroke-width:1.0;"/><line style="stroke:#181818;stroke-width:1.0;" x1="613" x2="1259" y1="366.4219" y2="366.4219"/><text fill="#000000" font-family="sans-serif" font-size="13" lengthAdjust="spacing" textLength="402" x="620" y="361.5654">actualizar("El estudiante Estudiante1 se ha inscrito en Matem&#225;ticas")</text><line style="stroke:#181818;stroke-width:1.0;" x1="1265" x2="1307" y1="396.7734" y2="396.7734"/><line style="stroke:#181818;stroke-width:1.0;" x1="1307" x2="1307" y1="396.7734" y2="409.7734"/><line style="stroke:#181818;stroke-width:1.0;" x1="1266" x2="1307" y1="409.7734" y2="409.7734"/><polygon fill="#181818" points="1276,405.7734,1266,409.7734,1276,413.7734,1272,409.7734" style="stroke:#181818;stroke-width:1.0;"/><text fill="#000000" font-family="sans-serif" font-size="13" lengthAdjust="spacing" textLength="125" x="1272" y="391.917">procesarNotificacion()</text><!--SRC=[fPAnJWCn38RtF8LrKol1mDg1fM9WW2AGsDtK54lNE79oLU5jU1PUZEGuATTUe49CfpZ-l_-FVMYZADo4s6qONIJZKIDRzka0JnmYxV3M1QliBOixkhx3IChue79ugrqy4hQr-bBSS_g-iCK9ioHPhGFf7ZUYnfGgN5vNOYs0-yEQTV2ODKLprLn0a-kxpuzaXA6PcoaZa-i1H_HZxDpK1IDKFvppWBvj9CkZEw_ANHFHVWYYoyvBcFtUZ5kbBMgX_yN9IVnsAgkYa00jKDdN20U1u1M7LqK1Sd2obHEtsi-GCjlOOSllgF_ogi5_DlKgbWBg_V3clEOqsoy0]--></g></svg>