<?xml version="1.0" encoding="us-ascii" standalone="no"?><svg xmlns="http://www.w3.org/2000/svg" xmlns:xlink="http://www.w3.org/1999/xlink" contentStyleType="text/css" height="600px" preserveAspectRatio="none" style="width:1357px;height:600px;background:#FFFFFF;" version="1.1" viewBox="0 0 1357 600" width="1357px" zoomAndPan="magnify"><defs/><g><line style="stroke:#181818;stroke-width:0.5;stroke-dasharray:5.0,5.0;" x1="32" x2="32" y1="82.6094" y2="518.8281"/><line style="stroke:#181818;stroke-width:0.5;stroke-dasharray:5.0,5.0;" x1="242.5" x2="242.5" y1="82.6094" y2="518.8281"/><line style="stroke:#181818;stroke-width:0.5;stroke-dasharray:5.0,5.0;" x1="502.5" x2="502.5" y1="82.6094" y2="518.8281"/><line style="stroke:#181818;stroke-width:0.5;stroke-dasharray:5.0,5.0;" x1="706" x2="706" y1="82.6094" y2="518.8281"/><line style="stroke:#181818;stroke-width:0.5;stroke-dasharray:5.0,5.0;" x1="879" x2="879" y1="82.6094" y2="518.8281"/><line style="stroke:#181818;stroke-width:0.5;stroke-dasharray:5.0,5.0;" x1="1273" x2="1273" y1="82.6094" y2="518.8281"/><text fill="#000000" font-family="sans-serif" font-size="14" lengthAdjust="spacing" textLength="48" x="5" y="79.5332">Usuario</text><ellipse cx="32" cy="13.5" fill="#E2E2F0" rx="8" ry="8" style="stroke:#181818;stroke-width:0.5;"/><path d="M32,21.5 L32,48.5 M19,29.5 L45,29.5 M32,48.5 L19,63.5 M32,48.5 L45,63.5 " fill="none" style="stroke:#181818;stroke-width:0.5;"/><text fill="#000000" font-family="sans-serif" font-size="14" lengthAdjust="spacing" textLength="48" x="5" y="532.3613">Usuario</text><ellipse cx="32" cy="543.9375" fill="#E2E2F0" rx="8" ry="8" style="stroke:#181818;stroke-width:0.5;"/><path d="M32,551.9375 L32,578.9375 M19,559.9375 L45,559.9375 M32,578.9375 L19,593.9375 M32,578.9375 L45,593.9375 " fill="none" style="stroke:#181818;stroke-width:0.5;"/><rect fill="#E2E2F0" height="31.6094" rx="2.5" ry="2.5" style="stroke:#181818;stroke-width:0.5;" width="85" x="200.5" y="50"/><text fill="#000000" font-family="sans-serif" font-size="14" lengthAdjust="spacing" textLength="71" x="207.5" y="71.5332">InterfazApp</text><rect fill="#E2E2F0" height="31.6094" rx="2.5" ry="2.5" style="stroke:#181818;stroke-width:0.5;" width="85" x="200.5" y="517.8281"/><text fill="#000000" font-family="sans-serif" font-size="14" lengthAdjust="spacing" textLength="71" x="207.5" y="539.3613">InterfazApp</text><rect fill="#E2E2F0" height="31.6094" rx="2.5" ry="2.5" style="stroke:#181818;stroke-width:0.5;" width="131" x="437.5" y="50"/><text fill="#000000" font-family="sans-serif" font-size="14" lengthAdjust="spacing" textLength="117" x="444.5" y="71.5332">SistemaInscripcion</text><rect fill="#E2E2F0" height="31.6094" rx="2.5" ry="2.5" style="stroke:#181818;stroke-width:0.5;" width="131" x="437.5" y="517.8281"/><text fill="#000000" font-family="sans-serif" font-size="14" lengthAdjust="spacing" textLength="117" x="444.5" y="539.3613">SistemaInscripcion</text><rect fill="#E2E2F0" height="31.6094" rx="2.5" ry="2.5" style="stroke:#181818;stroke-width:0.5;" width="96" x="658" y="50"/><text fill="#000000" font-family="sans-serif" font-size="14" lengthAdjust="spacing" textLength="82" x="665" y="71.5332">MateriaProxy</text><rect fill="#E2E2F0" height="31.6094" rx="2.5" ry="2.5" style="stroke:#181818;stroke-width:0.5;" width="96" x="658" y="517.8281"/><text fill="#000000" font-family="sans-serif" font-size="14" lengthAdjust="spacing" textLength="82" x="665" y="539.3613">MateriaProxy</text><rect fill="#E2E2F0" height="31.6094" rx="2.5" ry="2.5" style="stroke:#181818;stroke-width:0.5;" width="90" x="834" y="50"/><text fill="#000000" font-family="sans-serif" font-size="14" lengthAdjust="spacing" textLength="76" x="841" y="71.5332">MateriaReal</text><rect fill="#E2E2F0" height="31.6094" rx="2.5" ry="2.5" style="stroke:#181818;stroke-width:0.5;" width="90" x="834" y="517.8281"/><text fill="#000000" font-family="sans-serif" font-size="14" lengthAdjust="spacing" textLength="76" x="841" y="539.3613">MateriaReal</text><rect fill="#E2E2F0" height="31.6094" rx="2.5" ry="2.5" style="stroke:#181818;stroke-width:0.5;" width="156" x="1195" y="50"/><text fill="#000000" font-family="sans-serif" font-size="14" lengthAdjust="spacing" textLength="142" x="1202" y="71.5332">EstudianteObservador</text><rect fill="#E2E2F0" height="31.6094" rx="2.5" ry="2.5" style="stroke:#181818;stroke-width:0.5;" width="156" x="1195" y="517.8281"/><text fill="#000000" font-family="sans-serif" font-size="14" lengthAdjust="spacing" textLength="142" x="1202" y="539.3613">EstudianteObservador</text><polygon fill="#181818" points="231,110.9609,241,114.9609,231,118.9609,235,114.9609" style="stroke:#181818;stroke-width:1.0;"/><line style="stroke:#181818;stroke-width:1.0;" x1="32" x2="237" y1="114.9609" y2="114.9609"/><text fill="#000000" font-family="sans-serif" font-size="13" lengthAdjust="spacing" textLength="187" x="39" y="110.1045">seleccionar inscribir estudiante()</text><polygon fill="#181818" points="491,141.3125,501,145.3125,491,149.3125,495,145.3125" style="stroke:#181818;stroke-width:1.0;"/><line style="stroke:#181818;stroke-width:1.0;" x1="243" x2="497" y1="145.3125" y2="145.3125"/><text fill="#000000" font-family="sans-serif" font-size="13" lengthAdjust="spacing" textLength="236" x="250" y="140.4561">inscribirMateria("Carlos", "Matematicas")</text><polygon fill="#181818" points="694,171.6641,704,175.6641,694,179.6641,698,175.6641" style="stroke:#181818;stroke-width:1.0;"/><line style="stroke:#181818;stroke-width:1.0;" x1="503" x2="700" y1="175.6641" y2="175.6641"/><text fill="#000000" font-family="sans-serif" font-size="13" lengthAdjust="spacing" textLength="179" x="510" y="170.8076">obtenerMateria("Matematicas")</text><line style="stroke:#181818;stroke-width:1.0;" x1="706" x2="748" y1="206.0156" y2="206.0156"/><line style="stroke:#181818;stroke-width:1.0;" x1="748" x2="748" y1="206.0156" y2="219.0156"/><line style="stroke:#181818;stroke-width:1.0;" x1="707" x2="748" y1="219.0156" y2="219.0156"/><polygon fill="#181818" points="717,215.0156,707,219.0156,717,223.0156,713,219.0156" style="stroke:#181818;stroke-width:1.0;"/><text fill="#000000" font-family="sans-serif" font-size="13" lengthAdjust="spacing" textLength="159" x="713" y="201.1592">verificarRequisitos("Carlos")</text><polygon fill="#181818" points="867,245.3672,877,249.3672,867,253.3672,871,249.3672" style="stroke:#181818;stroke-width:1.0;"/><line style="stroke:#181818;stroke-width:1.0;" x1="706" x2="873" y1="249.3672" y2="249.3672"/><text fill="#000000" font-family="sans-serif" font-size="13" lengthAdjust="spacing" textLength="100" x="713" y="244.5107">inscribir("Carlos")</text><line style="stroke:#181818;stroke-width:1.0;" x1="879" x2="921" y1="279.7188" y2="279.7188"/><line style="stroke:#181818;stroke-width:1.0;" x1="921" x2="921" y1="279.7188" y2="292.7188"/><line style="stroke:#181818;stroke-width:1.0;" x1="880" x2="921" y1="292.7188" y2="292.7188"/><polygon fill="#181818" points="890,288.7188,880,292.7188,890,296.7188,886,292.7188" style="stroke:#181818;stroke-width:1.0;"/><text fill="#000000" font-family="sans-serif" font-size="13" lengthAdjust="spacing" textLength="88" x="886" y="274.8623">verificarCupos()</text><line style="stroke:#181818;stroke-width:1.0;" x1="879" x2="921" y1="323.0703" y2="323.0703"/><line style="stroke:#181818;stroke-width:1.0;" x1="921" x2="921" y1="323.0703" y2="336.0703"/><line style="stroke:#181818;stroke-width:1.0;" x1="880" x2="921" y1="336.0703" y2="336.0703"/><polygon fill="#181818" points="890,332.0703,880,336.0703,890,340.0703,886,336.0703" style="stroke:#181818;stroke-width:1.0;"/><text fill="#000000" font-family="sans-serif" font-size="13" lengthAdjust="spacing" textLength="160" x="886" y="318.2139">agregarEstudiante("Carlos")</text><line style="stroke:#181818;stroke-width:1.0;" x1="879" x2="921" y1="366.4219" y2="366.4219"/><line style="stroke:#181818;stroke-width:1.0;" x1="921" x2="921" y1="366.4219" y2="379.4219"/><line style="stroke:#181818;stroke-width:1.0;" x1="880" x2="921" y1="379.4219" y2="379.4219"/><polygon fill="#181818" points="890,375.4219,880,379.4219,890,383.4219,886,379.4219" style="stroke:#181818;stroke-width:1.0;"/><text fill="#000000" font-family="sans-serif" font-size="13" lengthAdjust="spacing" textLength="346" x="886" y="361.5654">notificarObservadores("Carlos se inscribi&#243; en Matematicas")</text><polygon fill="#181818" points="1261,405.7734,1271,409.7734,1261,413.7734,1265,409.7734" style="stroke:#181818;stroke-width:1.0;"/><line style="stroke:#181818;stroke-width:1.0;" x1="879" x2="1267" y1="409.7734" y2="409.7734"/><text fill="#000000" font-family="sans-serif" font-size="13" lengthAdjust="spacing" textLength="370" x="886" y="404.917">actualizar("El estudiante Carlos se ha inscrito en Matematicas")</text><polygon fill="#181818" points="514,436.125,504,440.125,514,444.125,510,440.125" style="stroke:#181818;stroke-width:1.0;"/><line style="stroke:#181818;stroke-width:1.0;" x1="508" x2="878" y1="440.125" y2="440.125"/><text fill="#000000" font-family="sans-serif" font-size="13" lengthAdjust="spacing" textLength="139" x="520" y="435.2686">confirmaci&#243;n inscripci&#243;n</text><polygon fill="#181818" points="254,466.4766,244,470.4766,254,474.4766,250,470.4766" style="stroke:#181818;stroke-width:1.0;"/><line style="stroke:#181818;stroke-width:1.0;" x1="248" x2="502" y1="470.4766" y2="470.4766"/><text fill="#000000" font-family="sans-serif" font-size="13" lengthAdjust="spacing" textLength="119" x="260" y="465.6201">confirmar inscripci&#243;n</text><polygon fill="#181818" points="43,496.8281,33,500.8281,43,504.8281,39,500.8281" style="stroke:#181818;stroke-width:1.0;"/><line style="stroke:#181818;stroke-width:1.0;" x1="37" x2="242" y1="500.8281" y2="500.8281"/><text fill="#000000" font-family="sans-serif" font-size="13" lengthAdjust="spacing" textLength="147" x="49" y="495.9717">mostrar mensaje de &#233;xito</text><!--SRC=[VPDDRi8m48NtESKecuBKNg2BIXLYmQ9gHTK336QWhX8x7TiLSAEkEG8Nw-J7YGEKLHpxcvdtncDKtZ9yk82iRLOXUwrqXSP3lZ2UU8E7vwhA0Ht8TmoyQ-Ufn8LnYdMbj3KDrssFsHUKP1hVsExs3TMihZ9Bmg91alynE7S-hBKiwNNbY7zmRRc960wox2ww0aS5gLeUGe5WHUdfQ61DeADo-SyY_V1KEuN798mxSgKPg2yncMOrA7pdM69whjC-oMV8XNNvVMklH761Bf_M-c8O6HN8U6xabMqWx4LWGTjcRwGpHadTfeTIrQuy6HfgZYkrL8B_2BMHGrxITz1EU-jwdGcUj3zrbg3Y8OKgjehSfUAKkSZRYvc5IdHCRzEuPUa93_USgBaPQAnlommJGxrhkUhUt-aezm4NTzLbw_E0s9H0csGx5p28h8Kh7x3G1vJ-pOjaYc2Gy1dxvkrL3KjoLP18ALv0w9xiMT5X59Kr6yqbjjF-tmYrenvP7dFTUCUNyGYbTJAc32KPXrzKlw7JxqxqPdy0]--></g></svg>